<svg width="224" height="32" viewBox="0 0 224 32" fill="none" xmlns="http://www.w3.org/2000/svg">
<g clip-path="url(#clip0_1269_240)">
<path d="M224 15.963C224 7.16859 216.757 0 207.872 0V15.963H191.744C191.744 24.7575 198.987 31.9261 207.872 31.9261V15.963H224Z" fill="#F68B1F"/>
<path d="M208.768 31.9261C216.981 31.4826 223.477 24.9792 224 16.8499C215.712 18.4018 210.336 23.7967 208.768 31.9261Z" fill="#F68B1F"/>
<path d="M206.901 0C198.688 0.443418 192.192 6.94688 191.669 15.0762C199.957 13.5243 205.408 8.20323 206.901 0Z" fill="#F68B1F"/>
<path d="M207.872 0C207.573 0 207.275 0 206.976 0C205.408 8.20323 200.032 13.5242 191.744 15.0762C191.744 15.3718 191.744 15.6674 191.744 15.963H207.872V0Z" fill="white"/>
<path d="M207.872 15.963V31.9261C208.171 31.9261 208.469 31.9261 208.768 31.9261C210.336 23.7228 215.712 18.4018 224 16.8498C224 16.5542 224 16.2586 224 15.963H207.872Z" fill="white"/>
<path d="M10.304 12.1201H4.928V3.03003H0V25.7922H4.928V15.6674H10.304V25.7922H15.232V3.03003H10.304V12.1201ZM30.9867 22.6143V9.82911H26.432V20.9146C26.432 22.3187 26.1333 23.2795 24.7893 23.2795C23.8187 23.2795 23.1467 22.836 23.1467 20.9146V9.82911H18.592V22.6143C18.592 23.649 19.04 24.5358 19.7867 25.2009C20.5333 25.7922 21.504 26.0878 22.624 26.0878C23.52 26.0878 24.192 25.94 24.864 25.6444C25.4613 25.3487 25.984 24.9053 26.432 24.2402V25.7922H31.2107V25.7183C31.0613 24.6097 30.9867 23.5751 30.9867 22.6143ZM42.4853 9.53349C41.5893 9.53349 40.8427 9.6813 40.2453 9.97691C39.648 10.2725 39.1253 10.7159 38.6773 11.3811V9.82911H34.1227V25.7922H38.6773V14.8545C38.6773 13.3765 38.976 12.4157 40.32 12.4157C41.664 12.4157 41.9627 13.3765 41.9627 14.8545V25.8661H46.5173V13.0069C46.5173 11.9723 46.0693 11.0855 45.3227 10.4203C44.576 9.82911 43.5307 9.53349 42.4853 9.53349ZM54.656 5.32102L50.1013 7.3164V9.82911H48.3093V12.6374H50.1013V22.3187C50.1013 22.9099 50.3253 25.8661 54.5067 25.8661C55.4027 25.8661 56 25.7922 56.5227 25.7183C56.5973 25.7183 56.7467 25.7183 56.8213 25.7183H56.896V22.9099H56.8213C56.5973 22.9838 56.2987 22.9838 56.0747 22.9838C55.4027 22.9838 55.0293 22.836 54.88 22.4665C54.7307 22.1709 54.7307 21.6536 54.7307 21.1363V12.6374H57.0453V9.82911H54.7307V5.32102H54.656ZM64.96 9.53349C58.8373 9.53349 58.3893 13.5243 58.3893 17.6628C58.3893 19.8799 58.5387 22.1709 59.5093 23.7968C60.48 25.4226 62.272 26.1617 64.96 26.1617C66.976 26.1617 68.6187 25.6443 69.7387 24.6097C70.784 23.649 71.3813 22.2448 71.456 20.4711V20.3972H66.8267V20.4711C66.8267 22.3187 66.2293 23.2795 64.96 23.2795C63.0187 23.2795 63.0187 20.3233 63.0187 18.6975H71.6053V18.6236C71.68 15.7413 71.5307 12.8591 69.888 11.2333C68.8427 10.0508 67.2 9.53349 64.96 9.53349ZM66.976 15.9631H63.0187C63.0187 15.2979 63.0187 14.3372 63.2427 13.5982C63.5413 12.7113 64.1387 12.3418 64.96 12.3418C65.5573 12.3418 65.9307 12.4896 66.304 12.7852C66.976 13.4504 66.976 14.7806 66.976 15.8892V15.9631ZM78.4747 11.8245V9.82911H74.144V25.7922H78.6987V17.1455C78.6987 16.4804 78.6987 15.5196 79.1467 14.7806C79.6693 13.9677 80.5653 13.5982 82.0587 13.5982C82.208 13.5982 82.432 13.5982 82.656 13.5982H82.7307V9.53349H82.656C80.5653 9.53349 79.2213 10.2725 78.4747 11.8245ZM100.576 14.2633C100.576 7.09469 99.3813 3.03003 93.0347 3.03003H84.9707V25.7922H92.8107C95.1253 25.7922 96.9173 25.127 98.1867 23.8707C100.576 21.5058 100.576 17.3672 100.501 14.8545C100.576 14.7067 100.576 14.485 100.576 14.2633ZM92.1387 22.2448H89.8987V6.57737H92.288C95.5733 6.57737 95.5733 10.1986 95.5733 14.4111C95.5733 19.8799 95.1253 22.2448 92.1387 22.2448ZM109.163 9.53349C103.04 9.53349 102.592 13.5243 102.592 17.6628C102.592 19.8799 102.741 22.1709 103.712 23.7968C104.683 25.4226 106.475 26.1617 109.163 26.1617C111.925 26.1617 113.643 25.4226 114.613 23.7968C115.584 22.1709 115.733 19.8799 115.733 17.6628C115.733 13.5243 115.285 9.53349 109.163 9.53349ZM109.163 23.2055C107.52 23.2055 107.147 22.097 107.147 17.3672C107.147 13.9677 107.371 12.4896 109.163 12.4896C110.955 12.4896 111.179 13.9677 111.179 17.3672C111.179 22.097 110.805 23.2055 109.163 23.2055ZM130.816 22.6143V9.82911H126.261V20.9146C126.261 22.3187 125.963 23.2795 124.619 23.2795C123.648 23.2795 122.976 22.836 122.976 20.9146V9.82911H118.421V22.6143C118.421 23.649 118.869 24.5358 119.616 25.2009C120.363 25.7922 121.333 26.0878 122.453 26.0878C123.349 26.0878 124.021 25.94 124.693 25.6444C125.291 25.3487 125.813 24.9053 126.261 24.2402V25.7922H131.04V25.7183C130.891 24.6097 130.816 23.5751 130.816 22.6143ZM141.867 11.6028C141.269 10.2725 139.925 9.53349 138.283 9.53349C133.504 9.53349 133.504 14.1155 133.504 17.515V17.9584C133.504 20.3233 133.504 22.9838 134.997 24.4619C135.744 25.2009 136.864 25.5704 138.283 25.5704C139.776 25.5704 141.045 24.9053 141.717 23.7968V26.8268C141.717 28.5266 141.12 29.4134 140.149 29.4134C139.477 29.4134 138.955 29.1917 138.731 28.8222C138.507 28.5266 138.357 28.0092 138.357 27.2702V27.1963H133.877V27.2702C133.952 29.1178 134.549 30.3741 135.819 31.1132C136.864 31.7044 138.283 32 140.224 32C142.837 32 144.629 31.261 145.6 29.709C146.347 28.4527 146.347 27.1224 146.347 26.5312V9.82911H141.867V11.6028ZM139.851 22.7621C139.403 22.7621 139.029 22.6143 138.731 22.3187C137.909 21.5058 137.984 19.806 137.984 18.6975C137.984 18.5497 137.984 18.4019 137.984 18.328C137.984 13.3764 138.283 12.4157 139.925 12.4157C141.568 12.4157 141.643 14.485 141.643 17.8106C141.643 21.2102 141.419 22.7621 139.851 22.7621ZM169.045 25.2009C168.971 24.388 168.896 23.5751 168.896 22.7621V14.8545C168.896 12.2679 168.373 9.45959 162.4 9.45959C160.533 9.45959 159.115 9.82911 158.144 10.4942C157.024 11.3072 156.501 12.5635 156.501 14.4111V14.485H160.981V14.4111C160.981 13.1547 161.131 12.0462 162.624 12.0462C164.267 12.0462 164.341 13.0808 164.341 14.3372V15.5196C164.043 15.5196 163.819 15.5196 163.52 15.5196C159.936 15.5196 156.053 15.9631 156.053 20.9885C156.053 25.4226 158.741 26.0878 160.384 26.0878C162.251 26.0878 163.595 25.3487 164.565 23.7229L164.789 25.7922H169.045V25.7183C169.12 25.5704 169.045 25.4226 169.045 25.2009ZM163.595 22.7621C163.221 23.1316 162.773 23.2795 162.176 23.2795C161.504 23.2795 160.608 23.0577 160.608 20.8407C160.608 18.254 161.952 18.254 163.893 18.1801C164.043 18.1801 164.192 18.1801 164.341 18.1801C164.341 18.328 164.341 18.5497 164.341 18.7714C164.416 20.0277 164.491 21.8753 163.595 22.7621ZM178.603 16.037C177.035 15.3718 175.691 14.7806 175.691 13.746C175.691 12.7113 176.213 12.1201 177.184 12.1201C177.557 12.1201 178.005 12.194 178.304 12.4157C178.603 12.7113 178.752 13.3025 178.752 14.4111V14.485H183.232V14.4111C183.307 13.0808 183.008 11.9723 182.187 11.0855C181.216 10.0508 179.573 9.45959 177.632 9.45959C175.989 9.45959 174.421 9.82911 173.376 10.4203C171.957 11.2333 171.285 12.4157 171.285 13.9677C171.285 16.776 173.749 17.8106 175.84 18.7714C177.632 19.5104 179.125 20.1755 179.125 21.6536C179.125 22.7621 178.304 23.2055 177.557 23.2055C176.736 23.2055 176.213 22.9838 175.989 22.4665C175.84 22.0231 175.765 21.4319 175.765 20.545V20.4711H171.285V20.545C171.211 22.3187 171.509 23.649 172.405 24.5358C173.376 25.5704 175.019 26.0139 177.632 26.0139C181.291 26.0139 183.68 24.0185 183.68 21.1363C183.605 18.1801 180.843 16.9977 178.603 16.037ZM149.333 25.7922H153.888V3.03003H149.333V25.7922Z" fill="white"/>
</g>
<defs>
<clipPath id="clip0_1269_240">
<rect width="224" height="32" fill="white"/>
</clipPath>
</defs>
</svg>
