<svg width="268" height="395" viewBox="0 0 268 395" fill="none" xmlns="http://www.w3.org/2000/svg">
<rect width="268" height="395" fill="#171717"/>
<path d="M34.3334 96.16C34.3334 97.6 33.8068 98.6867 32.7534 99.42C32.0201 99.9267 31.2534 100.18 30.4534 100.18C28.9468 100.18 27.6868 99.8667 26.6734 99.24C25.5534 98.5467 24.9934 97.5867 24.9934 96.36V88.42C24.9934 88.0467 24.9668 87.8067 24.9134 87.7C24.8868 87.6467 24.8068 87.5933 24.6734 87.54C24.2468 87.38 23.5134 87.3 22.4734 87.3V87.1H30.1934V87.3C29.5801 87.3 29.0801 87.32 28.6934 87.36C28.3201 87.4 28.0468 87.4533 27.8734 87.52C27.7001 87.5867 27.6001 87.6467 27.5734 87.7C27.5068 87.82 27.4734 88.06 27.4734 88.42V95.96C27.4734 97.2933 27.6734 98.2467 28.0734 98.82C28.5534 99.5133 29.4201 99.86 30.6734 99.86C31.3668 99.86 32.0401 99.6133 32.6934 99.12C33.6134 98.4267 34.0734 97.44 34.0734 96.16V90.94C34.0734 89.5667 33.8601 88.62 33.4334 88.1C33.0068 87.5667 32.3068 87.3 31.3334 87.3V87.1H36.6934V87.3C35.6934 87.3 35.0268 87.58 34.6934 88.14C34.4534 88.54 34.3334 89.2133 34.3334 90.16V96.16ZM41.5955 92.08C42.1155 91.6933 42.3888 91.4867 42.4155 91.46V94.46L42.2355 94.42C42.0488 93.62 41.7155 92.9667 41.2355 92.46C40.7155 91.9133 40.1421 91.64 39.5155 91.64C39.0355 91.64 38.6421 91.7333 38.3355 91.92C37.9221 92.1733 37.7155 92.5933 37.7155 93.18C37.7155 93.66 37.9421 94.0333 38.3955 94.3C38.7155 94.4867 39.3555 94.6933 40.3155 94.92C41.2755 95.1467 41.9488 95.4133 42.3355 95.72C42.8821 96.1467 43.1555 96.8267 43.1555 97.76C43.1555 98.6267 42.8621 99.2667 42.2755 99.68C41.8088 100.013 41.2221 100.18 40.5155 100.18C39.9288 100.18 39.5088 100.14 39.2555 100.06C38.8821 99.94 38.4755 99.6533 38.0355 99.2C37.5021 99.8267 37.2221 100.153 37.1955 100.18V96.64H37.3355C37.5621 97.4667 37.7488 98.04 37.8955 98.36C38.0955 98.8 38.3088 99.1267 38.5355 99.34C38.8421 99.6333 39.1288 99.82 39.3955 99.9C39.6755 99.9667 40.0888 100 40.6355 100C41.0488 100 41.3888 99.8933 41.6555 99.68C41.9755 99.4267 42.1355 99.0667 42.1355 98.6C42.1355 98 41.9221 97.5533 41.4955 97.26C41.1621 97.0333 40.5688 96.8333 39.7155 96.66C38.8755 96.4867 38.2221 96.2067 37.7555 95.82C37.1955 95.3533 36.9155 94.7333 36.9155 93.96C36.9155 93.2667 37.1488 92.68 37.6155 92.2C38.0955 91.7067 38.6755 91.46 39.3555 91.46C39.8755 91.46 40.3288 91.5467 40.7155 91.72C41.2221 91.9467 41.5155 92.0667 41.5955 92.08ZM45.8881 95.88C45.8881 97.3067 46.0548 98.34 46.3881 98.98C46.7348 99.62 47.2548 99.94 47.9481 99.94C48.6815 99.94 49.3281 99.6933 49.8881 99.2C50.5681 98.6 50.9081 97.7867 50.9081 96.76H51.0881C51.0881 97.76 50.7681 98.58 50.1281 99.22C49.4881 99.86 48.6348 100.18 47.5681 100.18C46.6748 100.18 45.8615 99.84 45.1281 99.16C44.2615 98.36 43.8281 97.3133 43.8281 96.02C43.8281 94.62 44.2548 93.48 45.1081 92.6C45.8548 91.84 46.6948 91.46 47.6281 91.46C48.4948 91.46 49.2148 91.7133 49.7881 92.22C50.6281 92.9667 51.0481 94.1867 51.0481 95.88H45.8881ZM49.3681 95.62C49.3681 94.34 49.2481 93.3667 49.0081 92.7C48.7815 92.02 48.4081 91.68 47.8881 91.68C47.1548 91.68 46.6348 92 46.3281 92.64C46.0348 93.28 45.8881 94.2733 45.8881 95.62H49.3681ZM61.7983 97.8V95.14C61.6383 95.3533 61.3983 95.4867 61.0783 95.54C60.7716 95.58 60.4716 95.62 60.1783 95.66C59.7916 95.7533 59.4849 95.9667 59.2583 96.3C58.9916 96.7 58.8583 97.26 58.8583 97.98C58.8583 98.7533 58.9316 99.28 59.0783 99.56C59.2383 99.8267 59.4849 99.96 59.8183 99.96C60.3249 99.96 60.7783 99.7533 61.1783 99.34C61.5916 98.9133 61.7983 98.4 61.7983 97.8ZM61.8583 94.2V93.04C61.8583 92.5067 61.7716 92.1467 61.5983 91.96C61.4249 91.7733 61.0516 91.68 60.4783 91.68C60.0116 91.68 59.6049 91.7667 59.2583 91.94C58.9116 92.1133 58.6849 92.3467 58.5783 92.64C58.6316 92.6267 58.6983 92.62 58.7783 92.62C59.0316 92.62 59.2383 92.72 59.3983 92.92C59.5583 93.12 59.6383 93.3467 59.6383 93.6C59.6383 93.8933 59.5383 94.1333 59.3383 94.32C59.1383 94.5067 58.9049 94.6 58.6383 94.6C58.4649 94.6 58.3116 94.5533 58.1783 94.46C57.7916 94.2067 57.5983 93.8867 57.5983 93.5C57.5983 93.3133 57.6383 93.1 57.7183 92.86C57.9049 92.34 58.3716 91.96 59.1183 91.72C59.6516 91.5467 60.1916 91.46 60.7383 91.46C61.7249 91.46 62.4716 91.6467 62.9783 92.02C63.4316 92.3533 63.6583 92.7733 63.6583 93.28V97.7C63.6583 98.5 63.6783 98.9933 63.7183 99.18C63.8116 99.6333 64.0516 99.86 64.4383 99.86C64.7849 99.86 65.0183 99.68 65.1383 99.32C65.2583 98.96 65.3183 98.44 65.3183 97.76C65.3183 97.5733 65.3116 97.3867 65.2983 97.2C65.2983 97.0133 65.2983 96.82 65.2983 96.62V96.44H65.5183V97.32C65.5183 97.6 65.5249 97.8667 65.5383 98.12C65.5383 98.8933 65.4449 99.4133 65.2583 99.68C65.0183 100.013 64.5316 100.18 63.7983 100.18C63.2249 100.18 62.7983 100.08 62.5183 99.88C62.1849 99.64 61.9649 99.2333 61.8583 98.66C61.5783 99.3133 61.1583 99.7533 60.5983 99.98C60.2649 100.113 59.8183 100.18 59.2583 100.18C58.6983 100.18 58.2116 100.047 57.7983 99.78C57.2249 99.42 56.9383 98.8733 56.9383 98.14C56.9383 97.42 57.2183 96.8133 57.7783 96.32C58.3383 95.84 59.0183 95.5667 59.8183 95.5C60.6183 95.4333 61.1583 95.3267 61.4383 95.18C61.7183 95.0333 61.8583 94.7067 61.8583 94.2ZM74.278 94.32C74.358 93.6267 74.5446 93.0267 74.838 92.52C75.2513 91.8133 75.798 91.46 76.478 91.46C77.438 91.46 78.2313 91.8267 78.858 92.56C79.538 93.36 79.878 94.46 79.878 95.86C79.878 96.82 79.5646 97.74 78.938 98.62C78.2046 99.66 77.278 100.18 76.158 100.18C75.5713 100.18 75.1046 99.8667 74.758 99.24C74.518 98.8 74.358 98.2933 74.278 97.72V103.2C74.278 103.467 74.298 103.64 74.338 103.72C74.3646 103.76 74.4246 103.8 74.518 103.84C74.798 103.933 75.378 103.98 76.258 103.98V104.18H70.418V103.98C70.8046 103.98 71.1513 103.967 71.458 103.94C71.778 103.913 72.0513 103.86 72.278 103.78C72.358 103.713 72.398 103.52 72.398 103.2V92.86C72.398 92.5933 72.358 92.4067 72.278 92.3C72.198 92.1933 72.118 92.1267 72.038 92.1C71.798 92.0333 71.2646 92 70.438 92V91.8L74.278 91.46V94.32ZM74.378 95.88C74.378 97.2133 74.5313 98.2267 74.838 98.92C75.1446 99.6133 75.5646 99.96 76.098 99.96C76.738 99.96 77.178 99.6667 77.418 99.08C77.6713 98.48 77.798 97.4 77.798 95.84C77.798 94.4267 77.7246 93.44 77.578 92.88C77.3646 92.0667 76.9246 91.66 76.258 91.66C75.8046 91.66 75.398 92 75.038 92.68C74.598 93.4933 74.378 94.56 74.378 95.88ZM84.4045 99.02C84.4045 99.2867 84.4245 99.46 84.4645 99.54C84.4912 99.58 84.5512 99.62 84.6445 99.66C84.9245 99.7533 85.5045 99.8 86.3845 99.8V100H80.5445V99.8C80.9312 99.8 81.2779 99.7867 81.5845 99.76C81.9045 99.7333 82.1779 99.68 82.4045 99.6C82.4845 99.5333 82.5245 99.34 82.5245 99.02V88.34C82.5245 88.0733 82.4845 87.8867 82.4045 87.78C82.3245 87.6733 82.2445 87.6067 82.1645 87.58C81.9245 87.5133 81.3912 87.48 80.5645 87.48V87.28L84.4045 86.94V99.02ZM92.0131 97.8V95.14C91.8531 95.3533 91.6131 95.4867 91.2931 95.54C90.9865 95.58 90.6865 95.62 90.3931 95.66C90.0065 95.7533 89.6998 95.9667 89.4731 96.3C89.2065 96.7 89.0731 97.26 89.0731 97.98C89.0731 98.7533 89.1465 99.28 89.2931 99.56C89.4531 99.8267 89.6998 99.96 90.0331 99.96C90.5398 99.96 90.9931 99.7533 91.3931 99.34C91.8065 98.9133 92.0131 98.4 92.0131 97.8ZM92.0731 94.2V93.04C92.0731 92.5067 91.9865 92.1467 91.8131 91.96C91.6398 91.7733 91.2665 91.68 90.6931 91.68C90.2265 91.68 89.8198 91.7667 89.4731 91.94C89.1265 92.1133 88.8998 92.3467 88.7931 92.64C88.8465 92.6267 88.9131 92.62 88.9931 92.62C89.2465 92.62 89.4531 92.72 89.6131 92.92C89.7731 93.12 89.8531 93.3467 89.8531 93.6C89.8531 93.8933 89.7531 94.1333 89.5531 94.32C89.3531 94.5067 89.1198 94.6 88.8531 94.6C88.6798 94.6 88.5265 94.5533 88.3931 94.46C88.0065 94.2067 87.8131 93.8867 87.8131 93.5C87.8131 93.3133 87.8531 93.1 87.9331 92.86C88.1198 92.34 88.5865 91.96 89.3331 91.72C89.8665 91.5467 90.4065 91.46 90.9531 91.46C91.9398 91.46 92.6865 91.6467 93.1931 92.02C93.6465 92.3533 93.8731 92.7733 93.8731 93.28V97.7C93.8731 98.5 93.8931 98.9933 93.9331 99.18C94.0265 99.6333 94.2665 99.86 94.6531 99.86C94.9998 99.86 95.2331 99.68 95.3531 99.32C95.4731 98.96 95.5331 98.44 95.5331 97.76C95.5331 97.5733 95.5265 97.3867 95.5131 97.2C95.5131 97.0133 95.5131 96.82 95.5131 96.62V96.44H95.7331V97.32C95.7331 97.6 95.7398 97.8667 95.7531 98.12C95.7531 98.8933 95.6598 99.4133 95.4731 99.68C95.2331 100.013 94.7465 100.18 94.0131 100.18C93.4398 100.18 93.0131 100.08 92.7331 99.88C92.3998 99.64 92.1798 99.2333 92.0731 98.66C91.7931 99.3133 91.3731 99.7533 90.8131 99.98C90.4798 100.113 90.0331 100.18 89.4731 100.18C88.9131 100.18 88.4265 100.047 88.0131 99.78C87.4398 99.42 87.1531 98.8733 87.1531 98.14C87.1531 97.42 87.4331 96.8133 87.9931 96.32C88.5531 95.84 89.2331 95.5667 90.0331 95.5C90.8331 95.4333 91.3731 95.3267 91.6531 95.18C91.9331 95.0333 92.0731 94.7067 92.0731 94.2ZM101.831 95.74V96.66C101.831 96.9667 101.838 97.26 101.851 97.54C101.851 98.4733 101.744 99.1133 101.531 99.46C101.238 99.94 100.671 100.18 99.8309 100.18C99.0309 100.18 98.4443 99.9867 98.0709 99.6C97.6976 99.2133 97.5109 98.66 97.5109 97.94V92.26H95.9109V92.06C96.9909 91.7933 97.8043 91.16 98.3509 90.16C98.7909 89.36 99.0109 88.46 99.0109 87.46H99.3709V91.68H101.691V92.26H99.3709V97.7C99.3709 98.42 99.3976 98.8867 99.4509 99.1C99.5843 99.6067 99.8843 99.86 100.351 99.86C100.898 99.86 101.258 99.5667 101.431 98.98C101.551 98.58 101.611 97.82 101.611 96.7V95.74H101.831ZM107.443 97.8V95.14C107.283 95.3533 107.043 95.4867 106.723 95.54C106.416 95.58 106.116 95.62 105.823 95.66C105.436 95.7533 105.129 95.9667 104.903 96.3C104.636 96.7 104.503 97.26 104.503 97.98C104.503 98.7533 104.576 99.28 104.723 99.56C104.883 99.8267 105.129 99.96 105.463 99.96C105.969 99.96 106.423 99.7533 106.823 99.34C107.236 98.9133 107.443 98.4 107.443 97.8ZM107.503 94.2V93.04C107.503 92.5067 107.416 92.1467 107.243 91.96C107.069 91.7733 106.696 91.68 106.123 91.68C105.656 91.68 105.249 91.7667 104.903 91.94C104.556 92.1133 104.329 92.3467 104.223 92.64C104.276 92.6267 104.343 92.62 104.423 92.62C104.676 92.62 104.883 92.72 105.043 92.92C105.203 93.12 105.283 93.3467 105.283 93.6C105.283 93.8933 105.183 94.1333 104.983 94.32C104.783 94.5067 104.549 94.6 104.283 94.6C104.109 94.6 103.956 94.5533 103.823 94.46C103.436 94.2067 103.243 93.8867 103.243 93.5C103.243 93.3133 103.283 93.1 103.363 92.86C103.549 92.34 104.016 91.96 104.763 91.72C105.296 91.5467 105.836 91.46 106.383 91.46C107.369 91.46 108.116 91.6467 108.623 92.02C109.076 92.3533 109.303 92.7733 109.303 93.28V97.7C109.303 98.5 109.323 98.9933 109.363 99.18C109.456 99.6333 109.696 99.86 110.083 99.86C110.429 99.86 110.663 99.68 110.783 99.32C110.903 98.96 110.963 98.44 110.963 97.76C110.963 97.5733 110.956 97.3867 110.943 97.2C110.943 97.0133 110.943 96.82 110.943 96.62V96.44H111.163V97.32C111.163 97.6 111.169 97.8667 111.183 98.12C111.183 98.8933 111.089 99.4133 110.903 99.68C110.663 100.013 110.176 100.18 109.443 100.18C108.869 100.18 108.443 100.08 108.163 99.88C107.829 99.64 107.609 99.2333 107.503 98.66C107.223 99.3133 106.803 99.7533 106.243 99.98C105.909 100.113 105.463 100.18 104.903 100.18C104.343 100.18 103.856 100.047 103.443 99.78C102.869 99.42 102.583 98.8733 102.583 98.14C102.583 97.42 102.863 96.8133 103.423 96.32C103.983 95.84 104.663 95.5667 105.463 95.5C106.263 95.4333 106.803 95.3267 107.083 95.18C107.363 95.0333 107.503 94.7067 107.503 94.2ZM115.081 92.04V99.02C115.081 99.3 115.101 99.4733 115.141 99.54C115.167 99.58 115.234 99.62 115.341 99.66C115.621 99.7533 116.174 99.8 117.001 99.8V100H111.341V99.8C112.141 99.8 112.681 99.7533 112.961 99.66L113.101 99.6C113.181 99.5333 113.221 99.34 113.221 99.02V92.04H111.341V91.68H113.221V90.5C113.221 89.6067 113.527 88.7933 114.141 88.06C114.767 87.3133 115.487 86.94 116.301 86.94C116.821 86.94 117.247 87.0267 117.581 87.2C117.914 87.36 118.127 87.5667 118.221 87.82C118.327 88.06 118.381 88.2867 118.381 88.5C118.381 88.8733 118.201 89.1733 117.841 89.4C117.694 89.4933 117.527 89.54 117.341 89.54C117.087 89.54 116.861 89.4533 116.661 89.28C116.474 89.0933 116.381 88.8533 116.381 88.56C116.381 88.0267 116.641 87.7133 117.161 87.62C117.067 87.4333 116.974 87.3 116.881 87.22C116.787 87.14 116.641 87.1 116.441 87.1C115.907 87.1 115.547 87.2533 115.361 87.56C115.174 87.8533 115.081 88.4067 115.081 89.22V91.68H116.941V92.04H115.081ZM126.851 95.8C126.851 97.0933 126.405 98.1667 125.511 99.02C124.698 99.7933 123.785 100.18 122.771 100.18C121.731 100.18 120.825 99.82 120.051 99.1C119.145 98.26 118.691 97.16 118.691 95.8C118.691 94.5067 119.138 93.44 120.031 92.6C120.845 91.84 121.758 91.46 122.771 91.46C123.798 91.46 124.705 91.82 125.491 92.54C126.398 93.3667 126.851 94.4533 126.851 95.8ZM124.771 95.8C124.771 94.32 124.645 93.28 124.391 92.68C124.098 91.9867 123.558 91.64 122.771 91.64C122.051 91.64 121.538 91.9733 121.231 92.64C120.925 93.3067 120.771 94.36 120.771 95.8C120.771 97.2667 120.905 98.3333 121.171 99C121.451 99.6667 121.985 100 122.771 100C123.491 100 124.005 99.66 124.311 98.98C124.618 98.3 124.771 97.24 124.771 95.8ZM129.536 92.82C129.536 92.5533 129.51 92.3867 129.456 92.32C129.363 92.1867 129.276 92.1067 129.196 92.08C128.956 92.0133 128.41 91.98 127.556 91.98V91.78L131.416 91.48V94C131.47 93.4533 131.656 92.94 131.976 92.46C132.416 91.7933 132.97 91.46 133.636 91.46C133.89 91.46 134.163 91.5467 134.456 91.72C134.75 91.88 134.943 92.0867 135.036 92.34C135.143 92.5933 135.196 92.82 135.196 93.02C135.196 93.5533 134.976 93.92 134.536 94.12C134.43 94.1733 134.29 94.2 134.116 94.2C133.85 94.2 133.623 94.1067 133.436 93.92C133.25 93.7333 133.156 93.4533 133.156 93.08C133.156 92.84 133.243 92.6 133.416 92.36C133.603 92.12 133.816 92.0267 134.056 92.08C133.976 91.8133 133.736 91.68 133.336 91.68C132.95 91.68 132.563 91.96 132.176 92.52C131.67 93.24 131.416 94.1667 131.416 95.3V99.02C131.416 99.2867 131.436 99.46 131.476 99.54C131.503 99.58 131.563 99.62 131.656 99.66C131.936 99.7533 132.516 99.8 133.396 99.8V100H127.556V99.8C127.943 99.8 128.29 99.7867 128.596 99.76C128.916 99.7333 129.19 99.68 129.416 99.6C129.496 99.5333 129.536 99.34 129.536 99.02V92.82ZM143.908 93.9C144.015 93.2867 144.168 92.8 144.368 92.44C144.702 91.8667 145.162 91.5467 145.748 91.48C145.842 91.48 145.942 91.4733 146.048 91.46C146.168 91.4467 146.255 91.44 146.308 91.44C147.135 91.44 147.795 91.6933 148.288 92.2C148.702 92.6267 148.908 93.1333 148.908 93.72V99.02C148.908 99.2733 148.928 99.44 148.968 99.52C148.995 99.5733 149.055 99.62 149.148 99.66C149.255 99.7 149.435 99.7333 149.688 99.76C149.955 99.7867 150.175 99.8 150.348 99.8V100H145.588V99.8C145.908 99.8 146.155 99.7933 146.328 99.78C146.502 99.7533 146.688 99.6867 146.888 99.58C146.968 99.5133 147.008 99.3267 147.008 99.02V93.96C147.008 93.3333 146.955 92.8467 146.848 92.5C146.675 91.9533 146.362 91.68 145.908 91.68C145.442 91.68 145.055 91.9 144.748 92.34C144.402 92.8333 144.135 93.7267 143.948 95.02V99.02C143.948 99.2867 143.968 99.46 144.008 99.54C144.035 99.58 144.095 99.62 144.188 99.66C144.282 99.6867 144.448 99.72 144.688 99.76C144.942 99.7867 145.175 99.8 145.388 99.8V100H140.628V99.8C141.135 99.8 141.528 99.7533 141.808 99.66L141.948 99.6C142.028 99.5333 142.068 99.34 142.068 99.02V93.96C142.068 93.32 142.015 92.8333 141.908 92.5C141.735 91.9533 141.415 91.68 140.948 91.68C140.348 91.68 139.882 92.06 139.548 92.82C139.322 93.3533 139.142 94.1133 139.008 95.1V99.02C139.008 99.2867 139.028 99.46 139.068 99.54C139.095 99.58 139.155 99.62 139.248 99.66C139.355 99.7 139.535 99.7333 139.788 99.76C140.055 99.7867 140.275 99.8 140.448 99.8V100H135.388V99.8C135.668 99.8 135.948 99.7867 136.228 99.76C136.522 99.7333 136.782 99.68 137.008 99.6C137.088 99.5333 137.128 99.34 137.128 99.02V92.96C137.128 92.84 137.122 92.72 137.108 92.6C137.108 92.48 137.082 92.3867 137.028 92.32C136.935 92.1867 136.855 92.1067 136.788 92.08C136.588 92.0133 136.128 91.98 135.408 91.98V91.78L139.008 91.44V94.02C139.102 93.38 139.242 92.8733 139.428 92.5C139.735 91.8867 140.188 91.5467 140.788 91.48C140.922 91.4667 141.035 91.46 141.128 91.46C141.235 91.4467 141.315 91.44 141.368 91.44C142.222 91.44 142.868 91.68 143.308 92.16C143.708 92.6 143.908 93.18 143.908 93.9ZM155.744 97.8V95.14C155.584 95.3533 155.344 95.4867 155.024 95.54C154.717 95.58 154.417 95.62 154.124 95.66C153.737 95.7533 153.43 95.9667 153.204 96.3C152.937 96.7 152.804 97.26 152.804 97.98C152.804 98.7533 152.877 99.28 153.024 99.56C153.184 99.8267 153.43 99.96 153.764 99.96C154.27 99.96 154.724 99.7533 155.124 99.34C155.537 98.9133 155.744 98.4 155.744 97.8ZM155.804 94.2V93.04C155.804 92.5067 155.717 92.1467 155.544 91.96C155.37 91.7733 154.997 91.68 154.424 91.68C153.957 91.68 153.55 91.7667 153.204 91.94C152.857 92.1133 152.63 92.3467 152.524 92.64C152.577 92.6267 152.644 92.62 152.724 92.62C152.977 92.62 153.184 92.72 153.344 92.92C153.504 93.12 153.584 93.3467 153.584 93.6C153.584 93.8933 153.484 94.1333 153.284 94.32C153.084 94.5067 152.85 94.6 152.584 94.6C152.41 94.6 152.257 94.5533 152.124 94.46C151.737 94.2067 151.544 93.8867 151.544 93.5C151.544 93.3133 151.584 93.1 151.664 92.86C151.85 92.34 152.317 91.96 153.064 91.72C153.597 91.5467 154.137 91.46 154.684 91.46C155.67 91.46 156.417 91.6467 156.924 92.02C157.377 92.3533 157.604 92.7733 157.604 93.28V97.7C157.604 98.5 157.624 98.9933 157.664 99.18C157.757 99.6333 157.997 99.86 158.384 99.86C158.73 99.86 158.964 99.68 159.084 99.32C159.204 98.96 159.264 98.44 159.264 97.76C159.264 97.5733 159.257 97.3867 159.244 97.2C159.244 97.0133 159.244 96.82 159.244 96.62V96.44H159.464V97.32C159.464 97.6 159.47 97.8667 159.484 98.12C159.484 98.8933 159.39 99.4133 159.204 99.68C158.964 100.013 158.477 100.18 157.744 100.18C157.17 100.18 156.744 100.08 156.464 99.88C156.13 99.64 155.91 99.2333 155.804 98.66C155.524 99.3133 155.104 99.7533 154.544 99.98C154.21 100.113 153.764 100.18 153.204 100.18C152.644 100.18 152.157 100.047 151.744 99.78C151.17 99.42 150.884 98.8733 150.884 98.14C150.884 97.42 151.164 96.8133 151.724 96.32C152.284 95.84 152.964 95.5667 153.764 95.5C154.564 95.4333 155.104 95.3267 155.384 95.18C155.664 95.0333 155.804 94.7067 155.804 94.2ZM166.923 95.88C166.923 97.3067 167.09 98.34 167.423 98.98C167.77 99.62 168.29 99.94 168.983 99.94C169.717 99.94 170.363 99.6933 170.923 99.2C171.603 98.6 171.943 97.7867 171.943 96.76H172.123C172.123 97.76 171.803 98.58 171.163 99.22C170.523 99.86 169.67 100.18 168.603 100.18C167.71 100.18 166.897 99.84 166.163 99.16C165.297 98.36 164.863 97.3133 164.863 96.02C164.863 94.62 165.29 93.48 166.143 92.6C166.89 91.84 167.73 91.46 168.663 91.46C169.53 91.46 170.25 91.7133 170.823 92.22C171.663 92.9667 172.083 94.1867 172.083 95.88H166.923ZM170.403 95.62C170.403 94.34 170.283 93.3667 170.043 92.7C169.817 92.02 169.443 91.68 168.923 91.68C168.19 91.68 167.67 92 167.363 92.64C167.07 93.28 166.923 94.2733 166.923 95.62H170.403ZM183.613 92.96C183.56 92.5333 183.373 92.2133 183.053 92C182.733 91.7733 182.333 91.66 181.853 91.66C181.107 91.66 180.587 91.9933 180.293 92.66C180 93.3267 179.853 94.38 179.853 95.82C179.853 97.1533 180.04 98.1667 180.413 98.86C180.787 99.54 181.287 99.88 181.913 99.88C182.66 99.88 183.293 99.6333 183.813 99.14C184.467 98.5133 184.793 97.5933 184.793 96.38H184.973C184.973 97.5533 184.667 98.48 184.053 99.16C183.44 99.84 182.6 100.18 181.533 100.18C180.667 100.18 179.86 99.8333 179.113 99.14C178.22 98.3133 177.773 97.26 177.773 95.98C177.773 94.6067 178.227 93.48 179.133 92.6C179.92 91.84 180.74 91.46 181.593 91.46C182.167 91.46 182.7 91.56 183.193 91.76C183.94 92.0667 184.4 92.54 184.573 93.18C184.64 93.42 184.673 93.6267 184.673 93.8C184.673 94.2267 184.473 94.5533 184.073 94.78C183.927 94.8733 183.753 94.92 183.553 94.92C183.313 94.92 183.093 94.8333 182.893 94.66C182.707 94.4733 182.613 94.2267 182.613 93.92C182.613 93.64 182.7 93.4133 182.873 93.24C183.06 93.0533 183.307 92.96 183.613 92.96ZM193.863 95.8C193.863 97.0933 193.416 98.1667 192.523 99.02C191.71 99.7933 190.796 100.18 189.783 100.18C188.743 100.18 187.836 99.82 187.063 99.1C186.156 98.26 185.703 97.16 185.703 95.8C185.703 94.5067 186.15 93.44 187.043 92.6C187.856 91.84 188.77 91.46 189.783 91.46C190.81 91.46 191.716 91.82 192.503 92.54C193.41 93.3667 193.863 94.4533 193.863 95.8ZM191.783 95.8C191.783 94.32 191.656 93.28 191.403 92.68C191.11 91.9867 190.57 91.64 189.783 91.64C189.063 91.64 188.55 91.9733 188.243 92.64C187.936 93.3067 187.783 94.36 187.783 95.8C187.783 97.2667 187.916 98.3333 188.183 99C188.463 99.6667 188.996 100 189.783 100C190.503 100 191.016 99.66 191.323 98.98C191.63 98.3 191.783 97.24 191.783 95.8ZM198.208 95.1V99.02C198.208 99.2867 198.228 99.46 198.268 99.54C198.295 99.58 198.355 99.62 198.448 99.66C198.555 99.7 198.735 99.7333 198.988 99.76C199.255 99.7867 199.488 99.8 199.688 99.8V100H194.568V99.8C194.861 99.8 195.148 99.7867 195.428 99.76C195.721 99.7333 195.981 99.68 196.208 99.6C196.288 99.5333 196.328 99.34 196.328 99.02V92.96C196.328 92.84 196.321 92.72 196.308 92.6C196.308 92.48 196.281 92.3867 196.228 92.32L196.108 92.12C195.975 92.0267 195.468 91.98 194.588 91.98V91.78L198.208 91.44V94.02C198.288 93.4467 198.461 92.94 198.728 92.5C199.101 91.8867 199.495 91.56 199.908 91.52C200.321 91.4667 200.588 91.44 200.708 91.44C201.548 91.44 202.215 91.6933 202.708 92.2C203.121 92.6267 203.328 93.1333 203.328 93.72V99.02C203.328 99.2867 203.348 99.46 203.388 99.54C203.415 99.58 203.481 99.62 203.588 99.66C203.695 99.7 203.888 99.7333 204.168 99.76C204.448 99.7867 204.715 99.8 204.968 99.8V100H199.848V99.8C200.061 99.8 200.308 99.7867 200.588 99.76C200.868 99.7333 201.115 99.68 201.328 99.6C201.408 99.5333 201.448 99.34 201.448 99.02V93.96C201.448 93.32 201.395 92.8333 201.288 92.5C201.115 91.9533 200.795 91.68 200.328 91.68C199.715 91.68 199.215 92.06 198.828 92.82C198.535 93.3933 198.328 94.1533 198.208 95.1ZM211.25 92.96C211.197 92.5333 211.01 92.2133 210.69 92C210.37 91.7733 209.97 91.66 209.49 91.66C208.743 91.66 208.223 91.9933 207.93 92.66C207.637 93.3267 207.49 94.38 207.49 95.82C207.49 97.1533 207.677 98.1667 208.05 98.86C208.423 99.54 208.923 99.88 209.55 99.88C210.297 99.88 210.93 99.6333 211.45 99.14C212.103 98.5133 212.43 97.5933 212.43 96.38H212.61C212.61 97.5533 212.303 98.48 211.69 99.16C211.077 99.84 210.237 100.18 209.17 100.18C208.303 100.18 207.497 99.8333 206.75 99.14C205.857 98.3133 205.41 97.26 205.41 95.98C205.41 94.6067 205.863 93.48 206.77 92.6C207.557 91.84 208.377 91.46 209.23 91.46C209.803 91.46 210.337 91.56 210.83 91.76C211.577 92.0667 212.037 92.54 212.21 93.18C212.277 93.42 212.31 93.6267 212.31 93.8C212.31 94.2267 212.11 94.5533 211.71 94.78C211.563 94.8733 211.39 94.92 211.19 94.92C210.95 94.92 210.73 94.8333 210.53 94.66C210.343 94.4733 210.25 94.2267 210.25 93.92C210.25 93.64 210.337 93.4133 210.51 93.24C210.697 93.0533 210.943 92.96 211.25 92.96ZM221.5 95.8C221.5 97.0933 221.053 98.1667 220.16 99.02C219.347 99.7933 218.433 100.18 217.42 100.18C216.38 100.18 215.473 99.82 214.7 99.1C213.793 98.26 213.34 97.16 213.34 95.8C213.34 94.5067 213.787 93.44 214.68 92.6C215.493 91.84 216.407 91.46 217.42 91.46C218.447 91.46 219.353 91.82 220.14 92.54C221.047 93.3667 221.5 94.4533 221.5 95.8ZM219.42 95.8C219.42 94.32 219.293 93.28 219.04 92.68C218.747 91.9867 218.207 91.64 217.42 91.64C216.7 91.64 216.187 91.9733 215.88 92.64C215.573 93.3067 215.42 94.36 215.42 95.8C215.42 97.2667 215.553 98.3333 215.82 99C216.1 99.6667 216.633 100 217.42 100C218.14 100 218.653 99.66 218.96 98.98C219.267 98.3 219.42 97.24 219.42 95.8ZM224.185 92.82C224.185 92.5533 224.158 92.3867 224.105 92.32C224.011 92.1867 223.925 92.1067 223.845 92.08C223.605 92.0133 223.058 91.98 222.205 91.98V91.78L226.065 91.48V94C226.118 93.4533 226.305 92.94 226.625 92.46C227.065 91.7933 227.618 91.46 228.285 91.46C228.538 91.46 228.811 91.5467 229.105 91.72C229.398 91.88 229.591 92.0867 229.685 92.34C229.791 92.5933 229.845 92.82 229.845 93.02C229.845 93.5533 229.625 93.92 229.185 94.12C229.078 94.1733 228.938 94.2 228.765 94.2C228.498 94.2 228.271 94.1067 228.085 93.92C227.898 93.7333 227.805 93.4533 227.805 93.08C227.805 92.84 227.891 92.6 228.065 92.36C228.251 92.12 228.465 92.0267 228.705 92.08C228.625 91.8133 228.385 91.68 227.985 91.68C227.598 91.68 227.211 91.96 226.825 92.52C226.318 93.24 226.065 94.1667 226.065 95.3V99.02C226.065 99.2867 226.085 99.46 226.125 99.54C226.151 99.58 226.211 99.62 226.305 99.66C226.585 99.7533 227.165 99.8 228.045 99.8V100H222.205V99.8C222.591 99.8 222.938 99.7867 223.245 99.76C223.565 99.7333 223.838 99.68 224.065 99.6C224.145 99.5333 224.185 99.34 224.185 99.02V92.82ZM232.017 92.82C232.017 92.5533 231.99 92.3867 231.937 92.32C231.843 92.1867 231.757 92.1067 231.677 92.08C231.437 92.0133 230.89 91.98 230.037 91.98V91.78L233.897 91.48V94C233.95 93.4533 234.137 92.94 234.457 92.46C234.897 91.7933 235.45 91.46 236.117 91.46C236.37 91.46 236.643 91.5467 236.937 91.72C237.23 91.88 237.423 92.0867 237.517 92.34C237.623 92.5933 237.677 92.82 237.677 93.02C237.677 93.5533 237.457 93.92 237.017 94.12C236.91 94.1733 236.77 94.2 236.597 94.2C236.33 94.2 236.103 94.1067 235.917 93.92C235.73 93.7333 235.637 93.4533 235.637 93.08C235.637 92.84 235.723 92.6 235.897 92.36C236.083 92.12 236.297 92.0267 236.537 92.08C236.457 91.8133 236.217 91.68 235.817 91.68C235.43 91.68 235.043 91.96 234.657 92.52C234.15 93.24 233.897 94.1667 233.897 95.3V99.02C233.897 99.2867 233.917 99.46 233.957 99.54C233.983 99.58 234.043 99.62 234.137 99.66C234.417 99.7533 234.997 99.8 235.877 99.8V100H230.037V99.8C230.423 99.8 230.77 99.7867 231.077 99.76C231.397 99.7333 231.67 99.68 231.897 99.6C231.977 99.5333 232.017 99.34 232.017 99.02V92.82ZM243.029 97.8V95.14C242.869 95.3533 242.629 95.4867 242.309 95.54C242.002 95.58 241.702 95.62 241.409 95.66C241.022 95.7533 240.715 95.9667 240.489 96.3C240.222 96.7 240.089 97.26 240.089 97.98C240.089 98.7533 240.162 99.28 240.309 99.56C240.469 99.8267 240.715 99.96 241.049 99.96C241.555 99.96 242.009 99.7533 242.409 99.34C242.822 98.9133 243.029 98.4 243.029 97.8ZM243.089 94.2V93.04C243.089 92.5067 243.002 92.1467 242.829 91.96C242.655 91.7733 242.282 91.68 241.709 91.68C241.242 91.68 240.835 91.7667 240.489 91.94C240.142 92.1133 239.915 92.3467 239.809 92.64C239.862 92.6267 239.929 92.62 240.009 92.62C240.262 92.62 240.469 92.72 240.629 92.92C240.789 93.12 240.869 93.3467 240.869 93.6C240.869 93.8933 240.769 94.1333 240.569 94.32C240.369 94.5067 240.135 94.6 239.869 94.6C239.695 94.6 239.542 94.5533 239.409 94.46C239.022 94.2067 238.829 93.8867 238.829 93.5C238.829 93.3133 238.869 93.1 238.949 92.86C239.135 92.34 239.602 91.96 240.349 91.72C240.882 91.5467 241.422 91.46 241.969 91.46C242.955 91.46 243.702 91.6467 244.209 92.02C244.662 92.3533 244.889 92.7733 244.889 93.28V97.7C244.889 98.5 244.909 98.9933 244.949 99.18C245.042 99.6333 245.282 99.86 245.669 99.86C246.015 99.86 246.249 99.68 246.369 99.32C246.489 98.96 246.549 98.44 246.549 97.76C246.549 97.5733 246.542 97.3867 246.529 97.2C246.529 97.0133 246.529 96.82 246.529 96.62V96.44H246.749V97.32C246.749 97.6 246.755 97.8667 246.769 98.12C246.769 98.8933 246.675 99.4133 246.489 99.68C246.249 100.013 245.762 100.18 245.029 100.18C244.455 100.18 244.029 100.08 243.749 99.88C243.415 99.64 243.195 99.2333 243.089 98.66C242.809 99.3133 242.389 99.7533 241.829 99.98C241.495 100.113 241.049 100.18 240.489 100.18C239.929 100.18 239.442 100.047 239.029 99.78C238.455 99.42 238.169 98.8733 238.169 98.14C238.169 97.42 238.449 96.8133 239.009 96.32C239.569 95.84 240.249 95.5667 241.049 95.5C241.849 95.4333 242.389 95.3267 242.669 95.18C242.949 95.0333 243.089 94.7067 243.089 94.2ZM75.8803 118.8V116.14C75.7203 116.353 75.4803 116.487 75.1603 116.54C74.8536 116.58 74.5536 116.62 74.2603 116.66C73.8736 116.753 73.567 116.967 73.3403 117.3C73.0736 117.7 72.9403 118.26 72.9403 118.98C72.9403 119.753 73.0136 120.28 73.1603 120.56C73.3203 120.827 73.567 120.96 73.9003 120.96C74.407 120.96 74.8603 120.753 75.2603 120.34C75.6736 119.913 75.8803 119.4 75.8803 118.8ZM75.9403 115.2V114.04C75.9403 113.507 75.8536 113.147 75.6803 112.96C75.507 112.773 75.1336 112.68 74.5603 112.68C74.0936 112.68 73.687 112.767 73.3403 112.94C72.9936 113.113 72.767 113.347 72.6603 113.64C72.7136 113.627 72.7803 113.62 72.8603 113.62C73.1136 113.62 73.3203 113.72 73.4803 113.92C73.6403 114.12 73.7203 114.347 73.7203 114.6C73.7203 114.893 73.6203 115.133 73.4203 115.32C73.2203 115.507 72.987 115.6 72.7203 115.6C72.547 115.6 72.3936 115.553 72.2603 115.46C71.8736 115.207 71.6803 114.887 71.6803 114.5C71.6803 114.313 71.7203 114.1 71.8003 113.86C71.987 113.34 72.4536 112.96 73.2003 112.72C73.7336 112.547 74.2736 112.46 74.8203 112.46C75.807 112.46 76.5536 112.647 77.0603 113.02C77.5136 113.353 77.7403 113.773 77.7403 114.28V118.7C77.7403 119.5 77.7603 119.993 77.8003 120.18C77.8936 120.633 78.1336 120.86 78.5203 120.86C78.867 120.86 79.1003 120.68 79.2203 120.32C79.3403 119.96 79.4003 119.44 79.4003 118.76C79.4003 118.573 79.3936 118.387 79.3803 118.2C79.3803 118.013 79.3803 117.82 79.3803 117.62V117.44H79.6003V118.32C79.6003 118.6 79.607 118.867 79.6203 119.12C79.6203 119.893 79.527 120.413 79.3403 120.68C79.1003 121.013 78.6136 121.18 77.8803 121.18C77.307 121.18 76.8803 121.08 76.6003 120.88C76.267 120.64 76.047 120.233 75.9403 119.66C75.6603 120.313 75.2403 120.753 74.6803 120.98C74.347 121.113 73.9003 121.18 73.3403 121.18C72.7803 121.18 72.2936 121.047 71.8803 120.78C71.307 120.42 71.0203 119.873 71.0203 119.14C71.0203 118.42 71.3003 117.813 71.8603 117.32C72.4203 116.84 73.1003 116.567 73.9003 116.5C74.7003 116.433 75.2403 116.327 75.5203 116.18C75.8003 116.033 75.9403 115.707 75.9403 115.2ZM88.36 115.32C88.44 114.627 88.6267 114.027 88.92 113.52C89.3333 112.813 89.88 112.46 90.56 112.46C91.52 112.46 92.3133 112.827 92.94 113.56C93.62 114.36 93.96 115.46 93.96 116.86C93.96 117.82 93.6467 118.74 93.02 119.62C92.2867 120.66 91.36 121.18 90.24 121.18C89.6533 121.18 89.1867 120.867 88.84 120.24C88.6 119.8 88.44 119.293 88.36 118.72V124.2C88.36 124.467 88.38 124.64 88.42 124.72C88.4467 124.76 88.5067 124.8 88.6 124.84C88.88 124.933 89.46 124.98 90.34 124.98V125.18H84.5V124.98C84.8867 124.98 85.2333 124.967 85.54 124.94C85.86 124.913 86.1333 124.86 86.36 124.78C86.44 124.713 86.48 124.52 86.48 124.2V113.86C86.48 113.593 86.44 113.407 86.36 113.3C86.28 113.193 86.2 113.127 86.12 113.1C85.88 113.033 85.3467 113 84.52 113V112.8L88.36 112.46V115.32ZM88.46 116.88C88.46 118.213 88.6133 119.227 88.92 119.92C89.2267 120.613 89.6467 120.96 90.18 120.96C90.82 120.96 91.26 120.667 91.5 120.08C91.7533 119.48 91.88 118.4 91.88 116.84C91.88 115.427 91.8067 114.44 91.66 113.88C91.4467 113.067 91.0067 112.66 90.34 112.66C89.8867 112.66 89.48 113 89.12 113.68C88.68 114.493 88.46 115.56 88.46 116.88ZM96.6066 113.82C96.6066 113.553 96.5799 113.387 96.5266 113.32C96.4332 113.187 96.3466 113.107 96.2666 113.08C96.0266 113.013 95.4799 112.98 94.6266 112.98V112.78L98.4866 112.48V115C98.5399 114.453 98.7266 113.94 99.0466 113.46C99.4866 112.793 100.04 112.46 100.707 112.46C100.96 112.46 101.233 112.547 101.527 112.72C101.82 112.88 102.013 113.087 102.107 113.34C102.213 113.593 102.267 113.82 102.267 114.02C102.267 114.553 102.047 114.92 101.607 115.12C101.5 115.173 101.36 115.2 101.187 115.2C100.92 115.2 100.693 115.107 100.507 114.92C100.32 114.733 100.227 114.453 100.227 114.08C100.227 113.84 100.313 113.6 100.487 113.36C100.673 113.12 100.887 113.027 101.127 113.08C101.047 112.813 100.807 112.68 100.407 112.68C100.02 112.68 99.6332 112.96 99.2466 113.52C98.7399 114.24 98.4866 115.167 98.4866 116.3V120.02C98.4866 120.287 98.5066 120.46 98.5466 120.54C98.5732 120.58 98.6332 120.62 98.7266 120.66C99.0066 120.753 99.5866 120.8 100.467 120.8V121H94.6266V120.8C95.0132 120.8 95.3599 120.787 95.6666 120.76C95.9866 120.733 96.2599 120.68 96.4866 120.6C96.5666 120.533 96.6066 120.34 96.6066 120.02V113.82ZM104.619 116.88C104.619 118.307 104.785 119.34 105.119 119.98C105.465 120.62 105.985 120.94 106.679 120.94C107.412 120.94 108.059 120.693 108.619 120.2C109.299 119.6 109.639 118.787 109.639 117.76H109.819C109.819 118.76 109.499 119.58 108.859 120.22C108.219 120.86 107.365 121.18 106.299 121.18C105.405 121.18 104.592 120.84 103.859 120.16C102.992 119.36 102.559 118.313 102.559 117.02C102.559 115.62 102.985 114.48 103.839 113.6C104.585 112.84 105.425 112.46 106.359 112.46C107.225 112.46 107.945 112.713 108.519 113.22C109.359 113.967 109.779 115.187 109.779 116.88H104.619ZM108.099 116.62C108.099 115.34 107.979 114.367 107.739 113.7C107.512 113.02 107.139 112.68 106.619 112.68C105.885 112.68 105.365 113 105.059 113.64C104.765 114.28 104.619 115.273 104.619 116.62H108.099ZM104.899 109.66L106.859 108.1L108.739 109.4L108.779 110.36L106.699 109.06L104.879 110.36L104.899 109.66ZM118.967 114.9C119.074 114.287 119.227 113.8 119.427 113.44C119.76 112.867 120.22 112.547 120.807 112.48C120.9 112.48 121 112.473 121.107 112.46C121.227 112.447 121.314 112.44 121.367 112.44C122.194 112.44 122.854 112.693 123.347 113.2C123.76 113.627 123.967 114.133 123.967 114.72V120.02C123.967 120.273 123.987 120.44 124.027 120.52C124.054 120.573 124.114 120.62 124.207 120.66C124.314 120.7 124.494 120.733 124.747 120.76C125.014 120.787 125.234 120.8 125.407 120.8V121H120.647V120.8C120.967 120.8 121.214 120.793 121.387 120.78C121.56 120.753 121.747 120.687 121.947 120.58C122.027 120.513 122.067 120.327 122.067 120.02V114.96C122.067 114.333 122.014 113.847 121.907 113.5C121.734 112.953 121.42 112.68 120.967 112.68C120.5 112.68 120.114 112.9 119.807 113.34C119.46 113.833 119.194 114.727 119.007 116.02V120.02C119.007 120.287 119.027 120.46 119.067 120.54C119.094 120.58 119.154 120.62 119.247 120.66C119.34 120.687 119.507 120.72 119.747 120.76C120 120.787 120.234 120.8 120.447 120.8V121H115.687V120.8C116.194 120.8 116.587 120.753 116.867 120.66L117.007 120.6C117.087 120.533 117.127 120.34 117.127 120.02V114.96C117.127 114.32 117.074 113.833 116.967 113.5C116.794 112.953 116.474 112.68 116.007 112.68C115.407 112.68 114.94 113.06 114.607 113.82C114.38 114.353 114.2 115.113 114.067 116.1V120.02C114.067 120.287 114.087 120.46 114.127 120.54C114.154 120.58 114.214 120.62 114.307 120.66C114.414 120.7 114.594 120.733 114.847 120.76C115.114 120.787 115.334 120.8 115.507 120.8V121H110.447V120.8C110.727 120.8 111.007 120.787 111.287 120.76C111.58 120.733 111.84 120.68 112.067 120.6C112.147 120.533 112.187 120.34 112.187 120.02V113.96C112.187 113.84 112.18 113.72 112.167 113.6C112.167 113.48 112.14 113.387 112.087 113.32C111.994 113.187 111.914 113.107 111.847 113.08C111.647 113.013 111.187 112.98 110.467 112.98V112.78L114.067 112.44V115.02C114.16 114.38 114.3 113.873 114.487 113.5C114.794 112.887 115.247 112.547 115.847 112.48C115.98 112.467 116.094 112.46 116.187 112.46C116.294 112.447 116.374 112.44 116.427 112.44C117.28 112.44 117.927 112.68 118.367 113.16C118.767 113.6 118.967 114.18 118.967 114.9ZM129.502 112.48V120.02C129.502 120.287 129.522 120.46 129.562 120.54C129.589 120.58 129.649 120.62 129.742 120.66C130.022 120.753 130.602 120.8 131.482 120.8V121H125.642V120.8C126.029 120.8 126.376 120.787 126.682 120.76C127.002 120.733 127.276 120.68 127.502 120.6C127.582 120.533 127.622 120.34 127.622 120.02V113.82C127.622 113.567 127.596 113.407 127.542 113.34C127.449 113.207 127.362 113.127 127.282 113.1C127.042 113.033 126.496 113 125.642 113V112.8L129.502 112.48ZM128.442 107.94C128.762 107.94 129.029 108.047 129.242 108.26C129.456 108.473 129.562 108.74 129.562 109.06C129.562 109.38 129.456 109.647 129.242 109.86C129.029 110.073 128.762 110.18 128.442 110.18C128.122 110.18 127.856 110.073 127.642 109.86C127.429 109.647 127.322 109.38 127.322 109.06C127.322 108.74 127.429 108.473 127.642 108.26C127.856 108.047 128.122 107.94 128.442 107.94ZM140.308 116.8C140.308 118.093 139.862 119.167 138.968 120.02C138.155 120.793 137.242 121.18 136.228 121.18C135.188 121.18 134.282 120.82 133.508 120.1C132.602 119.26 132.148 118.16 132.148 116.8C132.148 115.507 132.595 114.44 133.488 113.6C134.302 112.84 135.215 112.46 136.228 112.46C137.255 112.46 138.162 112.82 138.948 113.54C139.855 114.367 140.308 115.453 140.308 116.8ZM138.228 116.8C138.228 115.32 138.102 114.28 137.848 113.68C137.555 112.987 137.015 112.64 136.228 112.64C135.508 112.64 134.995 112.973 134.688 113.64C134.382 114.307 134.228 115.36 134.228 116.8C134.228 118.267 134.362 119.333 134.628 120C134.908 120.667 135.442 121 136.228 121C136.948 121 137.462 120.66 137.768 119.98C138.075 119.3 138.228 118.24 138.228 116.8ZM145.853 113.08C146.373 112.693 146.647 112.487 146.673 112.46V115.46L146.493 115.42C146.307 114.62 145.973 113.967 145.493 113.46C144.973 112.913 144.4 112.64 143.773 112.64C143.293 112.64 142.9 112.733 142.593 112.92C142.18 113.173 141.973 113.593 141.973 114.18C141.973 114.66 142.2 115.033 142.653 115.3C142.973 115.487 143.613 115.693 144.573 115.92C145.533 116.147 146.207 116.413 146.593 116.72C147.14 117.147 147.413 117.827 147.413 118.76C147.413 119.627 147.12 120.267 146.533 120.68C146.067 121.013 145.48 121.18 144.773 121.18C144.187 121.18 143.767 121.14 143.513 121.06C143.14 120.94 142.733 120.653 142.293 120.2C141.76 120.827 141.48 121.153 141.453 121.18V117.64H141.593C141.82 118.467 142.007 119.04 142.153 119.36C142.353 119.8 142.567 120.127 142.793 120.34C143.1 120.633 143.387 120.82 143.653 120.9C143.933 120.967 144.347 121 144.893 121C145.307 121 145.647 120.893 145.913 120.68C146.233 120.427 146.393 120.067 146.393 119.6C146.393 119 146.18 118.553 145.753 118.26C145.42 118.033 144.827 117.833 143.973 117.66C143.133 117.487 142.48 117.207 142.013 116.82C141.453 116.353 141.173 115.733 141.173 114.96C141.173 114.267 141.407 113.68 141.873 113.2C142.353 112.707 142.933 112.46 143.613 112.46C144.133 112.46 144.587 112.547 144.973 112.72C145.48 112.947 145.773 113.067 145.853 113.08ZM158.608 118.22C158.608 118.873 158.448 119.487 158.128 120.06C157.714 120.807 157.141 121.18 156.408 121.18C155.448 121.18 154.654 120.813 154.028 120.08C153.348 119.28 153.008 118.18 153.008 116.78C153.008 115.82 153.321 114.9 153.948 114.02C154.681 112.98 155.608 112.46 156.728 112.46C157.328 112.46 157.801 112.793 158.148 113.46C158.388 113.927 158.541 114.44 158.608 115V109.34C158.608 109.073 158.568 108.887 158.488 108.78C158.408 108.673 158.294 108.607 158.148 108.58C157.814 108.513 157.068 108.48 155.908 108.48V108.28L160.488 107.94V119.82C160.488 120.087 160.508 120.26 160.548 120.34C160.574 120.38 160.634 120.42 160.728 120.46C161.008 120.553 161.554 120.6 162.368 120.6V120.8L158.608 121.18V118.22ZM158.508 116.76C158.508 115.427 158.354 114.413 158.048 113.72C157.741 113.027 157.321 112.68 156.788 112.68C156.148 112.68 155.701 112.98 155.448 113.58C155.208 114.167 155.088 115.24 155.088 116.8C155.088 118.213 155.161 119.2 155.308 119.76C155.521 120.573 155.961 120.98 156.628 120.98C157.081 120.98 157.488 120.64 157.848 119.96C158.288 119.147 158.508 118.08 158.508 116.76ZM164.912 116.88C164.912 118.307 165.078 119.34 165.412 119.98C165.758 120.62 166.278 120.94 166.972 120.94C167.705 120.94 168.352 120.693 168.912 120.2C169.592 119.6 169.932 118.787 169.932 117.76H170.112C170.112 118.76 169.792 119.58 169.152 120.22C168.512 120.86 167.658 121.18 166.592 121.18C165.698 121.18 164.885 120.84 164.152 120.16C163.285 119.36 162.852 118.313 162.852 117.02C162.852 115.62 163.278 114.48 164.132 113.6C164.878 112.84 165.718 112.46 166.652 112.46C167.518 112.46 168.238 112.713 168.812 113.22C169.652 113.967 170.072 115.187 170.072 116.88H164.912ZM168.392 116.62C168.392 115.34 168.272 114.367 168.032 113.7C167.805 113.02 167.432 112.68 166.912 112.68C166.178 112.68 165.658 113 165.352 113.64C165.058 114.28 164.912 115.273 164.912 116.62H168.392ZM180.822 118.8V116.14C180.662 116.353 180.422 116.487 180.102 116.54C179.795 116.58 179.495 116.62 179.202 116.66C178.815 116.753 178.508 116.967 178.282 117.3C178.015 117.7 177.882 118.26 177.882 118.98C177.882 119.753 177.955 120.28 178.102 120.56C178.262 120.827 178.508 120.96 178.842 120.96C179.348 120.96 179.802 120.753 180.202 120.34C180.615 119.913 180.822 119.4 180.822 118.8ZM180.882 115.2V114.04C180.882 113.507 180.795 113.147 180.622 112.96C180.448 112.773 180.075 112.68 179.502 112.68C179.035 112.68 178.628 112.767 178.282 112.94C177.935 113.113 177.708 113.347 177.602 113.64C177.655 113.627 177.722 113.62 177.802 113.62C178.055 113.62 178.262 113.72 178.422 113.92C178.582 114.12 178.662 114.347 178.662 114.6C178.662 114.893 178.562 115.133 178.362 115.32C178.162 115.507 177.928 115.6 177.662 115.6C177.488 115.6 177.335 115.553 177.202 115.46C176.815 115.207 176.622 114.887 176.622 114.5C176.622 114.313 176.662 114.1 176.742 113.86C176.928 113.34 177.395 112.96 178.142 112.72C178.675 112.547 179.215 112.46 179.762 112.46C180.748 112.46 181.495 112.647 182.002 113.02C182.455 113.353 182.682 113.773 182.682 114.28V118.7C182.682 119.5 182.702 119.993 182.742 120.18C182.835 120.633 183.075 120.86 183.462 120.86C183.808 120.86 184.042 120.68 184.162 120.32C184.282 119.96 184.342 119.44 184.342 118.76C184.342 118.573 184.335 118.387 184.322 118.2C184.322 118.013 184.322 117.82 184.322 117.62V117.44H184.542V118.32C184.542 118.6 184.548 118.867 184.562 119.12C184.562 119.893 184.468 120.413 184.282 120.68C184.042 121.013 183.555 121.18 182.822 121.18C182.248 121.18 181.822 121.08 181.542 120.88C181.208 120.64 180.988 120.233 180.882 119.66C180.602 120.313 180.182 120.753 179.622 120.98C179.288 121.113 178.842 121.18 178.282 121.18C177.722 121.18 177.235 121.047 176.822 120.78C176.248 120.42 175.962 119.873 175.962 119.14C175.962 118.42 176.242 117.813 176.802 117.32C177.362 116.84 178.042 116.567 178.842 116.5C179.642 116.433 180.182 116.327 180.462 116.18C180.742 116.033 180.882 115.707 180.882 115.2ZM190.64 116.74V117.66C190.64 117.967 190.646 118.26 190.66 118.54C190.66 119.473 190.553 120.113 190.34 120.46C190.046 120.94 189.48 121.18 188.64 121.18C187.84 121.18 187.253 120.987 186.88 120.6C186.506 120.213 186.32 119.66 186.32 118.94V113.26H184.72V113.06C185.8 112.793 186.613 112.16 187.16 111.16C187.6 110.36 187.82 109.46 187.82 108.46H188.18V112.68H190.5V113.26H188.18V118.7C188.18 119.42 188.206 119.887 188.26 120.1C188.393 120.607 188.693 120.86 189.16 120.86C189.706 120.86 190.066 120.567 190.24 119.98C190.36 119.58 190.42 118.82 190.42 117.7V116.74H190.64ZM193.251 116.88C193.251 118.307 193.418 119.34 193.751 119.98C194.098 120.62 194.618 120.94 195.311 120.94C196.045 120.94 196.691 120.693 197.251 120.2C197.931 119.6 198.271 118.787 198.271 117.76H198.451C198.451 118.76 198.131 119.58 197.491 120.22C196.851 120.86 195.998 121.18 194.931 121.18C194.038 121.18 193.225 120.84 192.491 120.16C191.625 119.36 191.191 118.313 191.191 117.02C191.191 115.62 191.618 114.48 192.471 113.6C193.218 112.84 194.058 112.46 194.991 112.46C195.858 112.46 196.578 112.713 197.151 113.22C197.991 113.967 198.411 115.187 198.411 116.88H193.251ZM196.731 116.62C196.731 115.34 196.611 114.367 196.371 113.7C196.145 113.02 195.771 112.68 195.251 112.68C194.518 112.68 193.998 113 193.691 113.64C193.398 114.28 193.251 115.273 193.251 116.62H196.731ZM193.831 110.36H193.411L194.251 108.1H196.211L193.831 110.36Z" fill="#FAFAFA"/>
<path d="M73.3978 242.1L72.7978 242.18C71.2645 242.18 69.9111 241.62 68.7378 240.5C67.4178 239.247 66.7578 237.6 66.7578 235.56C66.7578 233.613 67.4178 231.993 68.7378 230.7C69.9378 229.527 71.2911 228.94 72.7978 228.94C74.3445 228.94 75.6978 229.493 76.8578 230.6C78.1778 231.853 78.8378 233.507 78.8378 235.56C78.8378 236.973 78.4978 238.193 77.8178 239.22C77.2178 240.113 76.3978 240.827 75.3578 241.36C75.4911 241.813 75.6311 242.28 75.7778 242.76C75.9378 243.24 76.0711 243.56 76.1778 243.72C76.6045 244.32 77.0511 244.62 77.5178 244.62C77.9045 244.62 78.2311 244.393 78.4978 243.94C78.7778 243.487 78.9178 242.873 78.9178 242.1C78.9178 241.833 78.8978 241.547 78.8578 241.24H79.0178C79.0445 241.373 79.0645 241.527 79.0778 241.7C79.0911 241.873 79.0978 242.033 79.0978 242.18C79.0978 243.167 78.8578 243.98 78.3778 244.62C77.8978 245.273 77.2378 245.6 76.3978 245.6C76.0778 245.6 75.7245 245.54 75.3378 245.42C74.7378 245.22 74.2645 244.827 73.9178 244.24C73.5711 243.667 73.3978 242.953 73.3978 242.1ZM75.0578 240.74C75.4578 240.207 75.7445 239.533 75.9178 238.72C76.1045 237.907 76.1978 236.853 76.1978 235.56C76.1978 233.453 75.9111 231.853 75.3378 230.76C74.7778 229.653 73.9311 229.1 72.7978 229.1C71.6111 229.1 70.7511 229.64 70.2178 230.72C69.6978 231.8 69.4378 233.42 69.4378 235.58C69.4378 237.18 69.6111 238.5 69.9578 239.54C70.3178 240.567 70.8711 241.287 71.6178 241.7C71.4445 241.553 71.3178 241.387 71.2378 241.2C71.1578 241 71.1178 240.8 71.1178 240.6C71.1178 240.24 71.2178 239.907 71.4178 239.6C71.6311 239.28 71.8245 239.093 71.9978 239.04C72.1711 238.987 72.3245 238.947 72.4578 238.92C72.5911 238.88 72.7311 238.86 72.8778 238.86C73.2511 238.86 73.5911 238.967 73.8978 239.18C74.1245 239.34 74.3511 239.567 74.5778 239.86C74.6578 239.953 74.7378 240.08 74.8178 240.24C74.8978 240.4 74.9778 240.567 75.0578 240.74ZM73.3978 241.92L73.5378 241.12C73.5778 240.973 73.6045 240.833 73.6178 240.7C73.6311 240.567 73.6378 240.427 73.6378 240.28C73.6378 239.907 73.5378 239.627 73.3378 239.44C73.1511 239.253 72.8645 239.16 72.4778 239.16C72.1445 239.16 71.8645 239.307 71.6378 239.6C71.4111 239.893 71.2978 240.227 71.2978 240.6C71.2978 240.893 71.3845 241.167 71.5578 241.42C71.7311 241.66 71.9911 241.84 72.3378 241.96C72.5245 241.987 72.6645 242 72.7578 242C72.9178 242 73.0511 241.987 73.1578 241.96C73.2778 241.933 73.3578 241.92 73.3978 241.92ZM85.967 234.72C85.967 234.413 85.927 234.213 85.847 234.12C85.7804 234.013 85.6604 233.947 85.487 233.92C85.327 233.893 84.787 233.88 83.867 233.88V233.68L87.847 233.46V240.24C87.847 240.413 87.847 240.587 87.847 240.76C87.8604 240.933 87.8937 241.06 87.947 241.14L88.067 241.34C88.2004 241.433 88.707 241.48 89.587 241.48V241.68L85.967 242V239.46C85.887 240.007 85.687 240.513 85.367 240.98C84.9537 241.58 84.447 241.913 83.847 241.98C83.767 241.993 83.687 242 83.607 242H83.367C82.5804 242 81.967 241.753 81.527 241.26C81.1537 240.847 80.967 240.347 80.967 239.76V234.54C80.967 234.3 80.9337 234.14 80.867 234.06C80.8137 233.967 80.727 233.913 80.607 233.9C80.487 233.887 80.1737 233.88 79.667 233.88H79.207V233.68L82.847 233.46V240.04C82.847 240.72 82.927 241.18 83.087 241.42C83.2604 241.66 83.507 241.78 83.827 241.78C84.427 241.78 84.9337 241.42 85.347 240.7C85.7604 239.98 85.967 239.2 85.967 238.36V234.72ZM92.1967 237.88C92.1967 239.307 92.3634 240.34 92.6967 240.98C93.0434 241.62 93.5634 241.94 94.2567 241.94C94.9901 241.94 95.6367 241.693 96.1967 241.2C96.8767 240.6 97.2167 239.787 97.2167 238.76H97.3967C97.3967 239.76 97.0767 240.58 96.4367 241.22C95.7967 241.86 94.9434 242.18 93.8767 242.18C92.9834 242.18 92.1701 241.84 91.4367 241.16C90.5701 240.36 90.1367 239.313 90.1367 238.02C90.1367 236.62 90.5634 235.48 91.4167 234.6C92.1634 233.84 93.0034 233.46 93.9367 233.46C94.8034 233.46 95.5234 233.713 96.0967 234.22C96.9367 234.967 97.3567 236.187 97.3567 237.88H92.1967ZM95.6767 237.62C95.6767 236.34 95.5567 235.367 95.3167 234.7C95.0901 234.02 94.7167 233.68 94.1967 233.68C93.4634 233.68 92.9434 234 92.6367 234.64C92.3434 235.28 92.1967 236.273 92.1967 237.62H95.6767ZM100.005 234.82C100.005 234.553 99.9783 234.387 99.925 234.32C99.8317 234.187 99.745 234.107 99.665 234.08C99.425 234.013 98.8783 233.98 98.025 233.98V233.78L101.885 233.48V236C101.938 235.453 102.125 234.94 102.445 234.46C102.885 233.793 103.438 233.46 104.105 233.46C104.358 233.46 104.632 233.547 104.925 233.72C105.218 233.88 105.412 234.087 105.505 234.34C105.612 234.593 105.665 234.82 105.665 235.02C105.665 235.553 105.445 235.92 105.005 236.12C104.898 236.173 104.758 236.2 104.585 236.2C104.318 236.2 104.092 236.107 103.905 235.92C103.718 235.733 103.625 235.453 103.625 235.08C103.625 234.84 103.712 234.6 103.885 234.36C104.072 234.12 104.285 234.027 104.525 234.08C104.445 233.813 104.205 233.68 103.805 233.68C103.418 233.68 103.032 233.96 102.645 234.52C102.138 235.24 101.885 236.167 101.885 237.3V241.02C101.885 241.287 101.905 241.46 101.945 241.54C101.972 241.58 102.032 241.62 102.125 241.66C102.405 241.753 102.985 241.8 103.865 241.8V242H98.025V241.8C98.4117 241.8 98.7583 241.787 99.065 241.76C99.385 241.733 99.6583 241.68 99.885 241.6C99.965 241.533 100.005 241.34 100.005 241.02V234.82ZM115.619 234.08C116.139 233.693 116.412 233.487 116.439 233.46V236.46L116.259 236.42C116.072 235.62 115.739 234.967 115.259 234.46C114.739 233.913 114.166 233.64 113.539 233.64C113.059 233.64 112.666 233.733 112.359 233.92C111.946 234.173 111.739 234.593 111.739 235.18C111.739 235.66 111.966 236.033 112.419 236.3C112.739 236.487 113.379 236.693 114.339 236.92C115.299 237.147 115.972 237.413 116.359 237.72C116.906 238.147 117.179 238.827 117.179 239.76C117.179 240.627 116.886 241.267 116.299 241.68C115.832 242.013 115.246 242.18 114.539 242.18C113.952 242.18 113.532 242.14 113.279 242.06C112.906 241.94 112.499 241.653 112.059 241.2C111.526 241.827 111.246 242.153 111.219 242.18V238.64H111.359C111.586 239.467 111.772 240.04 111.919 240.36C112.119 240.8 112.332 241.127 112.559 241.34C112.866 241.633 113.152 241.82 113.419 241.9C113.699 241.967 114.112 242 114.659 242C115.072 242 115.412 241.893 115.679 241.68C115.999 241.427 116.159 241.067 116.159 240.6C116.159 240 115.946 239.553 115.519 239.26C115.186 239.033 114.592 238.833 113.739 238.66C112.899 238.487 112.246 238.207 111.779 237.82C111.219 237.353 110.939 236.733 110.939 235.96C110.939 235.267 111.172 234.68 111.639 234.2C112.119 233.707 112.699 233.46 113.379 233.46C113.899 233.46 114.352 233.547 114.739 233.72C115.246 233.947 115.539 234.067 115.619 234.08ZM122.912 239.8V237.14C122.752 237.353 122.512 237.487 122.192 237.54C121.885 237.58 121.585 237.62 121.292 237.66C120.905 237.753 120.598 237.967 120.372 238.3C120.105 238.7 119.972 239.26 119.972 239.98C119.972 240.753 120.045 241.28 120.192 241.56C120.352 241.827 120.598 241.96 120.932 241.96C121.438 241.96 121.892 241.753 122.292 241.34C122.705 240.913 122.912 240.4 122.912 239.8ZM122.972 236.2V235.04C122.972 234.507 122.885 234.147 122.712 233.96C122.538 233.773 122.165 233.68 121.592 233.68C121.125 233.68 120.718 233.767 120.372 233.94C120.025 234.113 119.798 234.347 119.692 234.64C119.745 234.627 119.812 234.62 119.892 234.62C120.145 234.62 120.352 234.72 120.512 234.92C120.672 235.12 120.752 235.347 120.752 235.6C120.752 235.893 120.652 236.133 120.452 236.32C120.252 236.507 120.018 236.6 119.752 236.6C119.578 236.6 119.425 236.553 119.292 236.46C118.905 236.207 118.712 235.887 118.712 235.5C118.712 235.313 118.752 235.1 118.832 234.86C119.018 234.34 119.485 233.96 120.232 233.72C120.765 233.547 121.305 233.46 121.852 233.46C122.838 233.46 123.585 233.647 124.092 234.02C124.545 234.353 124.772 234.773 124.772 235.28V239.7C124.772 240.5 124.792 240.993 124.832 241.18C124.925 241.633 125.165 241.86 125.552 241.86C125.898 241.86 126.132 241.68 126.252 241.32C126.372 240.96 126.432 240.44 126.432 239.76C126.432 239.573 126.425 239.387 126.412 239.2C126.412 239.013 126.412 238.82 126.412 238.62V238.44H126.632V239.32C126.632 239.6 126.638 239.867 126.652 240.12C126.652 240.893 126.558 241.413 126.372 241.68C126.132 242.013 125.645 242.18 124.912 242.18C124.338 242.18 123.912 242.08 123.632 241.88C123.298 241.64 123.078 241.233 122.972 240.66C122.692 241.313 122.272 241.753 121.712 241.98C121.378 242.113 120.932 242.18 120.372 242.18C119.812 242.18 119.325 242.047 118.912 241.78C118.338 241.42 118.052 240.873 118.052 240.14C118.052 239.42 118.332 238.813 118.892 238.32C119.452 237.84 120.132 237.567 120.932 237.5C121.732 237.433 122.272 237.327 122.552 237.18C122.832 237.033 122.972 236.707 122.972 236.2ZM130.189 238.96C130.189 240.213 130.423 241.073 130.889 241.54C131.183 241.833 131.609 241.98 132.169 241.98C132.716 241.98 133.109 241.6 133.349 240.84C133.589 240.067 133.709 239.053 133.709 237.8C133.709 236.307 133.576 235.247 133.309 234.62C133.043 233.993 132.663 233.68 132.169 233.68C131.636 233.68 131.189 233.993 130.829 234.62C130.403 235.353 130.189 236.367 130.189 237.66V238.96ZM128.309 242.18V230.34C128.309 230.073 128.269 229.887 128.189 229.78C128.109 229.673 128.029 229.607 127.949 229.58C127.723 229.513 127.209 229.48 126.409 229.48V229.28L130.189 228.94V236C130.189 235.387 130.383 234.813 130.769 234.28C131.169 233.733 131.636 233.46 132.169 233.46C133.369 233.46 134.309 234 134.989 235.08C135.523 235.933 135.789 236.833 135.789 237.78C135.789 238.993 135.443 240.033 134.749 240.9C134.069 241.753 133.283 242.18 132.389 242.18C131.576 242.18 130.969 242.08 130.569 241.88C130.183 241.667 129.769 241.247 129.329 240.62L128.489 242.18H128.309ZM138.623 237.88C138.623 239.307 138.789 240.34 139.123 240.98C139.469 241.62 139.989 241.94 140.683 241.94C141.416 241.94 142.063 241.693 142.623 241.2C143.303 240.6 143.643 239.787 143.643 238.76H143.823C143.823 239.76 143.503 240.58 142.863 241.22C142.223 241.86 141.369 242.18 140.303 242.18C139.409 242.18 138.596 241.84 137.863 241.16C136.996 240.36 136.563 239.313 136.563 238.02C136.563 236.62 136.989 235.48 137.843 234.6C138.589 233.84 139.429 233.46 140.363 233.46C141.229 233.46 141.949 233.713 142.523 234.22C143.363 234.967 143.783 236.187 143.783 237.88H138.623ZM142.103 237.62C142.103 236.34 141.983 235.367 141.743 234.7C141.516 234.02 141.143 233.68 140.623 233.68C139.889 233.68 139.369 234 139.063 234.64C138.769 235.28 138.623 236.273 138.623 237.62H142.103ZM146.431 234.82C146.431 234.553 146.404 234.387 146.351 234.32C146.257 234.187 146.171 234.107 146.091 234.08C145.851 234.013 145.304 233.98 144.451 233.98V233.78L148.311 233.48V236C148.364 235.453 148.551 234.94 148.871 234.46C149.311 233.793 149.864 233.46 150.531 233.46C150.784 233.46 151.057 233.547 151.351 233.72C151.644 233.88 151.837 234.087 151.931 234.34C152.037 234.593 152.091 234.82 152.091 235.02C152.091 235.553 151.871 235.92 151.431 236.12C151.324 236.173 151.184 236.2 151.011 236.2C150.744 236.2 150.517 236.107 150.331 235.92C150.144 235.733 150.051 235.453 150.051 235.08C150.051 234.84 150.137 234.6 150.311 234.36C150.497 234.12 150.711 234.027 150.951 234.08C150.871 233.813 150.631 233.68 150.231 233.68C149.844 233.68 149.457 233.96 149.071 234.52C148.564 235.24 148.311 236.167 148.311 237.3V241.02C148.311 241.287 148.331 241.46 148.371 241.54C148.397 241.58 148.457 241.62 148.551 241.66C148.831 241.753 149.411 241.8 150.291 241.8V242H144.451V241.8C144.837 241.8 145.184 241.787 145.491 241.76C145.811 241.733 146.084 241.68 146.311 241.6C146.391 241.533 146.431 241.34 146.431 241.02V234.82ZM165.725 235.9C165.831 235.287 165.985 234.8 166.185 234.44C166.518 233.867 166.978 233.547 167.565 233.48C167.658 233.48 167.758 233.473 167.865 233.46C167.985 233.447 168.071 233.44 168.125 233.44C168.951 233.44 169.611 233.693 170.105 234.2C170.518 234.627 170.725 235.133 170.725 235.72V241.02C170.725 241.273 170.745 241.44 170.785 241.52C170.811 241.573 170.871 241.62 170.965 241.66C171.071 241.7 171.251 241.733 171.505 241.76C171.771 241.787 171.991 241.8 172.165 241.8V242H167.405V241.8C167.725 241.8 167.971 241.793 168.145 241.78C168.318 241.753 168.505 241.687 168.705 241.58C168.785 241.513 168.825 241.327 168.825 241.02V235.96C168.825 235.333 168.771 234.847 168.665 234.5C168.491 233.953 168.178 233.68 167.725 233.68C167.258 233.68 166.871 233.9 166.565 234.34C166.218 234.833 165.951 235.727 165.765 237.02V241.02C165.765 241.287 165.785 241.46 165.825 241.54C165.851 241.58 165.911 241.62 166.005 241.66C166.098 241.687 166.265 241.72 166.505 241.76C166.758 241.787 166.991 241.8 167.205 241.8V242H162.445V241.8C162.951 241.8 163.345 241.753 163.625 241.66L163.765 241.6C163.845 241.533 163.885 241.34 163.885 241.02V235.96C163.885 235.32 163.831 234.833 163.725 234.5C163.551 233.953 163.231 233.68 162.765 233.68C162.165 233.68 161.698 234.06 161.365 234.82C161.138 235.353 160.958 236.113 160.825 237.1V241.02C160.825 241.287 160.845 241.46 160.885 241.54C160.911 241.58 160.971 241.62 161.065 241.66C161.171 241.7 161.351 241.733 161.605 241.76C161.871 241.787 162.091 241.8 162.265 241.8V242H157.205V241.8C157.485 241.8 157.765 241.787 158.045 241.76C158.338 241.733 158.598 241.68 158.825 241.6C158.905 241.533 158.945 241.34 158.945 241.02V234.96C158.945 234.84 158.938 234.72 158.925 234.6C158.925 234.48 158.898 234.387 158.845 234.32C158.751 234.187 158.671 234.107 158.605 234.08C158.405 234.013 157.945 233.98 157.225 233.98V233.78L160.825 233.44V236.02C160.918 235.38 161.058 234.873 161.245 234.5C161.551 233.887 162.005 233.547 162.605 233.48C162.738 233.467 162.851 233.46 162.945 233.46C163.051 233.447 163.131 233.44 163.185 233.44C164.038 233.44 164.685 233.68 165.125 234.16C165.525 234.6 165.725 235.18 165.725 235.9ZM177.56 239.8V237.14C177.4 237.353 177.16 237.487 176.84 237.54C176.533 237.58 176.233 237.62 175.94 237.66C175.553 237.753 175.247 237.967 175.02 238.3C174.753 238.7 174.62 239.26 174.62 239.98C174.62 240.753 174.693 241.28 174.84 241.56C175 241.827 175.247 241.96 175.58 241.96C176.087 241.96 176.54 241.753 176.94 241.34C177.353 240.913 177.56 240.4 177.56 239.8ZM177.62 236.2V235.04C177.62 234.507 177.533 234.147 177.36 233.96C177.187 233.773 176.813 233.68 176.24 233.68C175.773 233.68 175.367 233.767 175.02 233.94C174.673 234.113 174.447 234.347 174.34 234.64C174.393 234.627 174.46 234.62 174.54 234.62C174.793 234.62 175 234.72 175.16 234.92C175.32 235.12 175.4 235.347 175.4 235.6C175.4 235.893 175.3 236.133 175.1 236.32C174.9 236.507 174.667 236.6 174.4 236.6C174.227 236.6 174.073 236.553 173.94 236.46C173.553 236.207 173.36 235.887 173.36 235.5C173.36 235.313 173.4 235.1 173.48 234.86C173.667 234.34 174.133 233.96 174.88 233.72C175.413 233.547 175.953 233.46 176.5 233.46C177.487 233.46 178.233 233.647 178.74 234.02C179.193 234.353 179.42 234.773 179.42 235.28V239.7C179.42 240.5 179.44 240.993 179.48 241.18C179.573 241.633 179.813 241.86 180.2 241.86C180.547 241.86 180.78 241.68 180.9 241.32C181.02 240.96 181.08 240.44 181.08 239.76C181.08 239.573 181.073 239.387 181.06 239.2C181.06 239.013 181.06 238.82 181.06 238.62V238.44H181.28V239.32C181.28 239.6 181.287 239.867 181.3 240.12C181.3 240.893 181.207 241.413 181.02 241.68C180.78 242.013 180.293 242.18 179.56 242.18C178.987 242.18 178.56 242.08 178.28 241.88C177.947 241.64 177.727 241.233 177.62 240.66C177.34 241.313 176.92 241.753 176.36 241.98C176.027 242.113 175.58 242.18 175.02 242.18C174.46 242.18 173.973 242.047 173.56 241.78C172.987 241.42 172.7 240.873 172.7 240.14C172.7 239.42 172.98 238.813 173.54 238.32C174.1 237.84 174.78 237.567 175.58 237.5C176.38 237.433 176.92 237.327 177.2 237.18C177.48 237.033 177.62 236.707 177.62 236.2ZM185.518 233.48V241.02C185.518 241.287 185.538 241.46 185.578 241.54C185.604 241.58 185.664 241.62 185.758 241.66C186.038 241.753 186.618 241.8 187.498 241.8V242H181.658V241.8C182.044 241.8 182.391 241.787 182.698 241.76C183.018 241.733 183.291 241.68 183.518 241.6C183.598 241.533 183.638 241.34 183.638 241.02V234.82C183.638 234.567 183.611 234.407 183.558 234.34C183.464 234.207 183.378 234.127 183.298 234.1C183.058 234.033 182.511 234 181.658 234V233.8L185.518 233.48ZM184.458 228.94C184.778 228.94 185.044 229.047 185.258 229.26C185.471 229.473 185.578 229.74 185.578 230.06C185.578 230.38 185.471 230.647 185.258 230.86C185.044 231.073 184.778 231.18 184.458 231.18C184.138 231.18 183.871 231.073 183.658 230.86C183.444 230.647 183.338 230.38 183.338 230.06C183.338 229.74 183.444 229.473 183.658 229.26C183.871 229.047 184.138 228.94 184.458 228.94ZM192.904 234.08C193.424 233.693 193.697 233.487 193.724 233.46V236.46L193.544 236.42C193.357 235.62 193.024 234.967 192.544 234.46C192.024 233.913 191.451 233.64 190.824 233.64C190.344 233.64 189.951 233.733 189.644 233.92C189.231 234.173 189.024 234.593 189.024 235.18C189.024 235.66 189.251 236.033 189.704 236.3C190.024 236.487 190.664 236.693 191.624 236.92C192.584 237.147 193.257 237.413 193.644 237.72C194.191 238.147 194.464 238.827 194.464 239.76C194.464 240.627 194.171 241.267 193.584 241.68C193.117 242.013 192.531 242.18 191.824 242.18C191.237 242.18 190.817 242.14 190.564 242.06C190.191 241.94 189.784 241.653 189.344 241.2C188.811 241.827 188.531 242.153 188.504 242.18V238.64H188.644C188.871 239.467 189.057 240.04 189.204 240.36C189.404 240.8 189.617 241.127 189.844 241.34C190.151 241.633 190.437 241.82 190.704 241.9C190.984 241.967 191.397 242 191.944 242C192.357 242 192.697 241.893 192.964 241.68C193.284 241.427 193.444 241.067 193.444 240.6C193.444 240 193.231 239.553 192.804 239.26C192.471 239.033 191.877 238.833 191.024 238.66C190.184 238.487 189.531 238.207 189.064 237.82C188.504 237.353 188.224 236.733 188.224 235.96C188.224 235.267 188.457 234.68 188.924 234.2C189.404 233.707 189.984 233.46 190.664 233.46C191.184 233.46 191.637 233.547 192.024 233.72C192.531 233.947 192.824 234.067 192.904 234.08ZM196.997 240.08C197.317 240.08 197.583 240.187 197.797 240.4C198.01 240.613 198.117 240.88 198.117 241.2C198.117 241.52 198.01 241.787 197.797 242C197.583 242.213 197.317 242.32 196.997 242.32C196.677 242.32 196.41 242.213 196.197 242C195.983 241.787 195.877 241.52 195.877 241.2C195.877 240.88 195.983 240.613 196.197 240.4C196.41 240.187 196.677 240.08 196.997 240.08ZM195.637 231.48C195.743 231.307 195.91 231.22 196.137 231.22C196.403 231.22 196.63 231.32 196.817 231.52C197.017 231.707 197.117 231.987 197.117 232.36C197.117 232.453 197.103 232.58 197.077 232.74C197.05 232.887 196.95 233.053 196.777 233.24C196.603 233.427 196.39 233.52 196.137 233.52C195.857 233.52 195.597 233.393 195.357 233.14C195.237 233.02 195.15 232.873 195.097 232.7C195.043 232.513 195.017 232.293 195.017 232.04C195.017 231.28 195.25 230.6 195.717 230C196.263 229.293 196.977 228.94 197.857 228.94C199.03 228.94 199.923 229.427 200.537 230.4C200.99 231.12 201.217 231.92 201.217 232.8C201.217 233.44 201.037 234.02 200.677 234.54C200.33 235.06 199.77 235.547 198.997 236C198.237 236.453 197.73 236.813 197.477 237.08C197.143 237.44 196.977 237.887 196.977 238.42C196.977 238.62 197.01 238.9 197.077 239.26H196.737C196.737 238.247 196.803 237.567 196.937 237.22C197.07 236.873 197.45 236.447 198.077 235.94C198.517 235.593 198.83 235.18 199.017 234.7C199.203 234.22 199.297 233.587 199.297 232.8C199.297 231.653 199.23 230.833 199.097 230.34C198.883 229.54 198.45 229.14 197.797 229.14C197.037 229.14 196.443 229.433 196.017 230.02C195.697 230.46 195.537 230.893 195.537 231.32L195.557 231.46C195.57 231.5 195.597 231.507 195.637 231.48Z" fill="#FAFAFA"/>
<path d="M31.74 168.06H33.6C34.5733 168.06 35.2933 167.88 35.76 167.52C36.32 167.093 36.6 166.373 36.6 165.36C36.6 164.24 36.3667 163.453 35.9 163C35.4467 162.533 34.6867 162.3 33.62 162.3H32.66C32.38 162.3 32.1733 162.32 32.04 162.36C31.9067 162.4 31.82 162.487 31.78 162.62C31.7533 162.74 31.74 162.993 31.74 163.38V168.06ZM39.84 172.12V172.78C39.84 173.567 39.7667 174.113 39.62 174.42C39.38 174.927 38.9067 175.18 38.2 175.18C37.28 175.18 36.6733 174.833 36.38 174.14C36.14 173.58 36.02 172.513 36.02 170.94V170.52C36.02 170.387 36.0267 170.247 36.04 170.1C36.04 169.393 35.8733 168.92 35.54 168.68C35.2067 168.427 34.7267 168.3 34.1 168.3H31.74V173.66C31.74 174.06 31.76 174.313 31.8 174.42C31.8533 174.527 31.9533 174.613 32.1 174.68C32.26 174.733 32.5733 174.767 33.04 174.78C33.52 174.793 34.02 174.8 34.54 174.8V175H26.4V174.78C27.8 174.78 28.64 174.727 28.92 174.62C29.0533 174.567 29.1467 174.493 29.2 174.4C29.2533 174.293 29.28 174.047 29.28 173.66V163.38C29.28 163.007 29.2533 162.773 29.2 162.68C29.1733 162.627 29.0867 162.573 28.94 162.52C28.5533 162.373 27.7067 162.3 26.4 162.3V162.1H34.58C36.02 162.1 37.1667 162.487 38.02 163.26C38.7 163.873 39.04 164.507 39.04 165.16C39.04 165.933 38.7733 166.567 38.24 167.06C37.6 167.66 36.5867 168.04 35.2 168.2C36.6133 168.48 37.5467 169.273 38 170.58C38.2267 171.233 38.34 172.22 38.34 173.54C38.34 173.927 38.3733 174.207 38.44 174.38C38.5067 174.553 38.6667 174.64 38.92 174.64C39.2 174.64 39.3933 174.42 39.5 173.98C39.6067 173.527 39.66 172.907 39.66 172.12H39.84ZM47.6481 164.12C47.5548 163.733 47.3815 163.393 47.1281 163.1C46.8215 162.753 46.4081 162.507 45.8881 162.36V167.08C46.9548 167.333 47.8015 167.733 48.4281 168.28C49.2415 168.987 49.6481 169.893 49.6481 171C49.6481 172.027 49.3415 172.893 48.7281 173.6C48.0748 174.36 47.1281 174.847 45.8881 175.06V177.36H45.5081V175.12L44.4681 175.18L43.5681 175.14V177.36H43.1881V175.08C42.4148 174.96 41.8015 174.727 41.3481 174.38C40.9081 174.033 40.5948 173.607 40.4081 173.1C40.3148 172.82 40.2681 172.553 40.2681 172.3C40.2681 171.913 40.3681 171.587 40.5681 171.32C40.7681 171.053 40.9415 170.907 41.0881 170.88C41.2481 170.853 41.3881 170.84 41.5081 170.84C41.8281 170.84 42.0815 170.927 42.2681 171.1C42.5081 171.327 42.6281 171.66 42.6281 172.1C42.6281 172.38 42.5348 172.6 42.3481 172.76C42.1615 172.92 41.9548 173 41.7281 173C41.6081 173 41.5081 172.987 41.4281 172.96C41.3615 172.92 41.3081 172.867 41.2681 172.8C41.2548 172.853 41.2481 172.927 41.2481 173.02C41.2481 173.367 41.4281 173.707 41.7881 174.04C42.1481 174.373 42.6148 174.607 43.1881 174.74V169.14C42.2148 168.847 41.5015 168.46 41.0481 167.98C40.5015 167.407 40.2281 166.62 40.2281 165.62C40.2281 164.687 40.5081 163.907 41.0681 163.28C41.5748 162.707 42.2815 162.313 43.1881 162.1V161.38H43.5681V162.02C43.8481 161.993 44.0615 161.973 44.2081 161.96C44.3548 161.947 44.4948 161.94 44.6281 161.94L45.5081 161.98V161.38H45.8881V162.02C46.3815 162.1 46.7815 162.233 47.0881 162.42C47.4081 162.607 47.7015 162.853 47.9681 163.16C48.3815 163.627 48.5881 164.147 48.5881 164.72C48.5881 165.347 48.3615 165.747 47.9081 165.92C47.7881 165.973 47.6481 166 47.4881 166C46.8748 166 46.5281 165.7 46.4481 165.1C46.4081 164.82 46.4681 164.567 46.6281 164.34C46.7881 164.1 46.9881 163.98 47.2281 163.98C47.3081 163.98 47.3815 163.993 47.4481 164.02C47.5148 164.033 47.5815 164.067 47.6481 164.12ZM43.5681 174.82L44.1681 174.86C44.6215 174.86 45.0681 174.827 45.5081 174.76V169.76L44.1681 169.42L43.5681 169.26V174.82ZM45.8881 174.68C46.5948 174.493 47.1015 174.2 47.4081 173.8C47.7281 173.387 47.8881 172.88 47.8881 172.28C47.8881 171.6 47.7348 171.093 47.4281 170.76C47.1215 170.413 46.6081 170.12 45.8881 169.88V174.68ZM43.5681 166.62C43.7148 166.66 43.9081 166.707 44.1481 166.76C44.4015 166.813 44.6415 166.853 44.8681 166.88L45.5081 166.98V162.28L44.6681 162.22C44.4548 162.22 44.2815 162.227 44.1481 162.24C44.0148 162.253 43.8215 162.28 43.5681 162.32V166.62ZM43.1881 166.5V162.42C42.6815 162.58 42.3015 162.793 42.0481 163.06C41.7281 163.393 41.5681 163.813 41.5681 164.32C41.5681 165.36 42.1081 166.087 43.1881 166.5Z" fill="#FAFAFA"/>
<path d="M60.565 148.18C64.195 148.18 66.67 148.015 67.99 147.685C69.31 147.325 70.525 146.635 71.635 145.615H72.22V172.03C72.22 172.9 72.28 173.455 72.4 173.695C72.46 173.815 72.655 173.95 72.985 174.1C73.345 174.22 73.96 174.325 74.83 174.415C75.73 174.505 76.72 174.55 77.8 174.55V175H60.565V174.55C61.855 174.55 62.965 174.505 63.895 174.415C64.855 174.325 65.5 174.22 65.83 174.1C66.19 173.95 66.415 173.785 66.505 173.605C66.625 173.395 66.685 172.87 66.685 172.03V151.15C66.685 150.34 66.595 149.83 66.415 149.62C66.265 149.38 66.01 149.2 65.65 149.08C65.29 148.93 64.75 148.84 64.03 148.81C63.31 148.75 62.155 148.72 60.565 148.72V148.18ZM88.8746 175.405C86.3846 175.405 84.2096 174.07 82.3496 171.4C80.3396 168.52 79.3346 164.89 79.3346 160.51C79.3346 156.13 80.3246 152.515 82.3046 149.665C84.1646 146.965 86.3546 145.615 88.8746 145.615C91.3946 145.615 93.5846 146.95 95.4446 149.62C97.4546 152.5 98.4596 156.13 98.4596 160.51C98.4596 164.89 97.4846 168.475 95.5346 171.265C93.6146 174.025 91.3946 175.405 88.8746 175.405ZM88.8746 175C90.0746 175 90.9746 173.785 91.5746 171.355C92.1746 168.925 92.4746 165.295 92.4746 160.465C92.4746 155.815 92.4296 152.92 92.3396 151.78C92.0396 147.91 90.8846 145.975 88.8746 145.975C87.7046 145.975 86.8196 147.19 86.2196 149.62C85.6196 152.02 85.3196 155.635 85.3196 160.465C85.3196 165.145 85.3646 168.055 85.4546 169.195C85.7546 173.065 86.8946 175 88.8746 175ZM109.309 175.405C106.819 175.405 104.644 174.07 102.784 171.4C100.774 168.52 99.7691 164.89 99.7691 160.51C99.7691 156.13 100.759 152.515 102.739 149.665C104.599 146.965 106.789 145.615 109.309 145.615C111.829 145.615 114.019 146.95 115.879 149.62C117.889 152.5 118.894 156.13 118.894 160.51C118.894 164.89 117.919 168.475 115.969 171.265C114.049 174.025 111.829 175.405 109.309 175.405ZM109.309 175C110.509 175 111.409 173.785 112.009 171.355C112.609 168.925 112.909 165.295 112.909 160.465C112.909 155.815 112.864 152.92 112.774 151.78C112.474 147.91 111.319 145.975 109.309 145.975C108.139 145.975 107.254 147.19 106.654 149.62C106.054 152.02 105.754 155.635 105.754 160.465C105.754 165.145 105.799 168.055 105.889 169.195C106.189 173.065 107.329 175 109.309 175ZM122.949 169.915C123.729 169.915 124.374 170.185 124.884 170.725C125.424 171.235 125.694 171.88 125.694 172.66C125.694 173.44 125.424 174.1 124.884 174.64C124.374 175.15 123.729 175.405 122.949 175.405C122.169 175.405 121.509 175.15 120.969 174.64C120.459 174.1 120.204 173.44 120.204 172.66C120.204 171.88 120.459 171.235 120.969 170.725C121.509 170.185 122.169 169.915 122.949 169.915ZM139.939 175.405C137.449 175.405 135.274 174.07 133.414 171.4C131.404 168.52 130.399 164.89 130.399 160.51C130.399 156.13 131.389 152.515 133.369 149.665C135.229 146.965 137.419 145.615 139.939 145.615C142.459 145.615 144.649 146.95 146.509 149.62C148.519 152.5 149.524 156.13 149.524 160.51C149.524 164.89 148.549 168.475 146.599 171.265C144.679 174.025 142.459 175.405 139.939 175.405ZM139.939 175C141.139 175 142.039 173.785 142.639 171.355C143.239 168.925 143.539 165.295 143.539 160.465C143.539 155.815 143.494 152.92 143.404 151.78C143.104 147.91 141.949 145.975 139.939 145.975C138.769 145.975 137.884 147.19 137.284 149.62C136.684 152.02 136.384 155.635 136.384 160.465C136.384 165.145 136.429 168.055 136.519 169.195C136.819 173.065 137.959 175 139.939 175ZM160.374 175.405C157.884 175.405 155.709 174.07 153.849 171.4C151.839 168.52 150.834 164.89 150.834 160.51C150.834 156.13 151.824 152.515 153.804 149.665C155.664 146.965 157.854 145.615 160.374 145.615C162.894 145.615 165.084 146.95 166.944 149.62C168.954 152.5 169.959 156.13 169.959 160.51C169.959 164.89 168.984 168.475 167.034 171.265C165.114 174.025 162.894 175.405 160.374 175.405ZM160.374 175C161.574 175 162.474 173.785 163.074 171.355C163.674 168.925 163.974 165.295 163.974 160.465C163.974 155.815 163.929 152.92 163.839 151.78C163.539 147.91 162.384 145.975 160.374 145.975C159.204 145.975 158.319 147.19 157.719 149.62C157.119 152.02 156.819 155.635 156.819 160.465C156.819 165.145 156.864 168.055 156.954 169.195C157.254 173.065 158.394 175 160.374 175ZM180.808 175.405C178.318 175.405 176.143 174.07 174.283 171.4C172.273 168.52 171.268 164.89 171.268 160.51C171.268 156.13 172.258 152.515 174.238 149.665C176.098 146.965 178.288 145.615 180.808 145.615C183.328 145.615 185.518 146.95 187.378 149.62C189.388 152.5 190.393 156.13 190.393 160.51C190.393 164.89 189.418 168.475 187.468 171.265C185.548 174.025 183.328 175.405 180.808 175.405ZM180.808 175C182.008 175 182.908 173.785 183.508 171.355C184.108 168.925 184.408 165.295 184.408 160.465C184.408 155.815 184.363 152.92 184.273 151.78C183.973 147.91 182.818 145.975 180.808 145.975C179.638 145.975 178.753 147.19 178.153 149.62C177.553 152.02 177.253 155.635 177.253 160.465C177.253 165.145 177.298 168.055 177.388 169.195C177.688 173.065 178.828 175 180.808 175ZM191.253 182.245C192.933 181.375 194.178 180.16 194.988 178.6C195.678 177.31 195.963 176.08 195.843 174.91C195.663 175.06 195.453 175.165 195.213 175.225C195.003 175.315 194.778 175.36 194.538 175.36C193.938 175.36 193.413 175.15 192.963 174.73C192.513 174.31 192.288 173.785 192.288 173.155C192.288 172.345 192.528 171.67 193.008 171.13C193.518 170.56 194.238 170.275 195.168 170.275C196.008 170.275 196.668 170.605 197.148 171.265C197.628 171.925 197.868 172.81 197.868 173.92C197.868 175.9 197.418 177.565 196.518 178.915C195.528 180.415 193.863 181.72 191.523 182.83L191.253 182.245ZM212.053 175.405C209.563 175.405 207.388 174.07 205.528 171.4C203.518 168.52 202.513 164.89 202.513 160.51C202.513 156.13 203.503 152.515 205.483 149.665C207.343 146.965 209.533 145.615 212.053 145.615C214.573 145.615 216.763 146.95 218.623 149.62C220.633 152.5 221.638 156.13 221.638 160.51C221.638 164.89 220.663 168.475 218.713 171.265C216.793 174.025 214.573 175.405 212.053 175.405ZM212.053 175C213.253 175 214.153 173.785 214.753 171.355C215.353 168.925 215.653 165.295 215.653 160.465C215.653 155.815 215.608 152.92 215.518 151.78C215.218 147.91 214.063 145.975 212.053 145.975C210.883 145.975 209.998 147.19 209.398 149.62C208.798 152.02 208.498 155.635 208.498 160.465C208.498 165.145 208.543 168.055 208.633 169.195C208.933 173.065 210.073 175 212.053 175ZM232.488 175.405C229.998 175.405 227.823 174.07 225.963 171.4C223.953 168.52 222.948 164.89 222.948 160.51C222.948 156.13 223.938 152.515 225.918 149.665C227.778 146.965 229.968 145.615 232.488 145.615C235.008 145.615 237.198 146.95 239.058 149.62C241.068 152.5 242.073 156.13 242.073 160.51C242.073 164.89 241.098 168.475 239.148 171.265C237.228 174.025 235.008 175.405 232.488 175.405ZM232.488 175C233.688 175 234.588 173.785 235.188 171.355C235.788 168.925 236.088 165.295 236.088 160.465C236.088 155.815 236.043 152.92 235.953 151.78C235.653 147.91 234.498 145.975 232.488 145.975C231.318 145.975 230.433 147.19 229.833 149.62C229.233 152.02 228.933 155.635 228.933 160.465C228.933 165.145 228.978 168.055 229.068 169.195C229.368 173.065 230.508 175 232.488 175Z" fill="#FAFAFA"/>
<rect x="28.5" y="271.5" width="211" height="39" rx="19.5" fill="#161616" stroke="#F8F8F8"/>
<path d="M101.943 289.148H100.17C100.102 288.769 99.9754 288.436 99.7898 288.148C99.6042 287.86 99.3769 287.616 99.108 287.415C98.839 287.214 98.5379 287.062 98.2045 286.96C97.875 286.858 97.5246 286.807 97.1534 286.807C96.483 286.807 95.8826 286.975 95.3523 287.312C94.8258 287.65 94.4091 288.144 94.1023 288.795C93.7992 289.447 93.6477 290.242 93.6477 291.182C93.6477 292.129 93.7992 292.928 94.1023 293.58C94.4091 294.231 94.8277 294.723 95.358 295.057C95.8883 295.39 96.4848 295.557 97.1477 295.557C97.5152 295.557 97.8636 295.508 98.1932 295.409C98.5265 295.307 98.8277 295.157 99.0966 294.96C99.3655 294.763 99.5928 294.523 99.7784 294.239C99.9678 293.951 100.098 293.621 100.17 293.25L101.943 293.256C101.848 293.828 101.665 294.354 101.392 294.835C101.123 295.312 100.777 295.725 100.352 296.074C99.9318 296.419 99.4508 296.686 98.9091 296.875C98.3674 297.064 97.7765 297.159 97.1364 297.159C96.1288 297.159 95.2311 296.92 94.4432 296.443C93.6553 295.962 93.0341 295.275 92.5795 294.381C92.1288 293.487 91.9034 292.42 91.9034 291.182C91.9034 289.939 92.1307 288.873 92.5852 287.983C93.0398 287.089 93.661 286.403 94.4489 285.926C95.2367 285.445 96.1326 285.205 97.1364 285.205C97.7538 285.205 98.3295 285.294 98.8636 285.472C99.4015 285.646 99.8845 285.903 100.312 286.244C100.741 286.581 101.095 286.994 101.375 287.483C101.655 287.968 101.845 288.523 101.943 289.148ZM105.607 285.364V297H103.908V285.364H105.607ZM107.892 297V288.273H109.591V297H107.892ZM108.75 286.926C108.455 286.926 108.201 286.828 107.989 286.631C107.78 286.43 107.676 286.191 107.676 285.915C107.676 285.634 107.78 285.396 107.989 285.199C108.201 284.998 108.455 284.898 108.75 284.898C109.045 284.898 109.297 284.998 109.506 285.199C109.718 285.396 109.824 285.634 109.824 285.915C109.824 286.191 109.718 286.43 109.506 286.631C109.297 286.828 109.045 286.926 108.75 286.926ZM117.768 300.273V295.642H117.666C117.564 295.828 117.416 296.04 117.223 296.278C117.034 296.517 116.772 296.725 116.439 296.903C116.106 297.081 115.674 297.17 115.143 297.17C114.439 297.17 113.81 296.991 113.257 296.631C112.708 296.267 112.276 295.75 111.962 295.08C111.651 294.405 111.496 293.597 111.496 292.653C111.496 291.71 111.653 290.903 111.967 290.233C112.286 289.562 112.721 289.049 113.274 288.693C113.827 288.337 114.454 288.159 115.155 288.159C115.696 288.159 116.132 288.25 116.462 288.432C116.795 288.61 117.053 288.818 117.234 289.057C117.42 289.295 117.564 289.506 117.666 289.688H117.808V288.273H119.467V300.273H117.768ZM115.518 295.722C116.007 295.722 116.42 295.593 116.757 295.335C117.098 295.074 117.356 294.712 117.53 294.25C117.708 293.788 117.797 293.25 117.797 292.636C117.797 292.03 117.71 291.5 117.536 291.045C117.361 290.591 117.106 290.237 116.768 289.983C116.431 289.729 116.015 289.602 115.518 289.602C115.007 289.602 114.581 289.735 114.24 290C113.899 290.265 113.642 290.627 113.467 291.085C113.297 291.544 113.212 292.061 113.212 292.636C113.212 293.22 113.299 293.744 113.473 294.21C113.647 294.676 113.905 295.045 114.246 295.318C114.59 295.587 115.015 295.722 115.518 295.722ZM127.28 293.381V288.273H128.984V297H127.314V295.489H127.223C127.022 295.955 126.7 296.343 126.257 296.653C125.818 296.96 125.27 297.114 124.615 297.114C124.054 297.114 123.558 296.991 123.126 296.744C122.698 296.494 122.361 296.125 122.115 295.636C121.873 295.148 121.751 294.544 121.751 293.824V288.273H123.45V293.619C123.45 294.214 123.615 294.687 123.945 295.04C124.274 295.392 124.702 295.568 125.229 295.568C125.547 295.568 125.863 295.489 126.178 295.33C126.496 295.17 126.759 294.93 126.967 294.608C127.179 294.286 127.284 293.877 127.28 293.381ZM135.028 297.176C134.169 297.176 133.428 296.992 132.807 296.625C132.189 296.254 131.712 295.733 131.375 295.062C131.042 294.388 130.875 293.598 130.875 292.693C130.875 291.799 131.042 291.011 131.375 290.33C131.712 289.648 132.182 289.116 132.784 288.733C133.39 288.35 134.098 288.159 134.909 288.159C135.402 288.159 135.879 288.241 136.341 288.403C136.803 288.566 137.218 288.822 137.585 289.17C137.953 289.519 138.242 289.972 138.455 290.528C138.667 291.081 138.773 291.754 138.773 292.545V293.148H131.835V291.875H137.108C137.108 291.428 137.017 291.032 136.835 290.688C136.653 290.339 136.398 290.064 136.068 289.864C135.742 289.663 135.36 289.562 134.92 289.562C134.443 289.562 134.027 289.68 133.67 289.915C133.318 290.146 133.045 290.449 132.852 290.824C132.663 291.195 132.568 291.598 132.568 292.034V293.028C132.568 293.612 132.67 294.108 132.875 294.517C133.083 294.926 133.373 295.239 133.744 295.455C134.116 295.667 134.549 295.773 135.045 295.773C135.367 295.773 135.661 295.727 135.926 295.636C136.191 295.542 136.42 295.402 136.614 295.216C136.807 295.03 136.955 294.801 137.057 294.528L138.665 294.818C138.536 295.292 138.305 295.706 137.972 296.062C137.642 296.415 137.227 296.689 136.727 296.886C136.231 297.08 135.665 297.176 135.028 297.176ZM147.432 297.193C146.879 297.193 146.379 297.091 145.932 296.886C145.485 296.678 145.131 296.377 144.869 295.983C144.612 295.589 144.483 295.106 144.483 294.534C144.483 294.042 144.578 293.636 144.767 293.318C144.956 293 145.212 292.748 145.534 292.562C145.856 292.377 146.216 292.237 146.614 292.142C147.011 292.047 147.417 291.975 147.83 291.926C148.352 291.866 148.777 291.816 149.102 291.778C149.428 291.737 149.665 291.67 149.812 291.58C149.96 291.489 150.034 291.341 150.034 291.136V291.097C150.034 290.6 149.894 290.216 149.614 289.943C149.337 289.67 148.924 289.534 148.375 289.534C147.803 289.534 147.352 289.661 147.023 289.915C146.697 290.165 146.472 290.443 146.347 290.75L144.75 290.386C144.939 289.856 145.216 289.428 145.58 289.102C145.947 288.773 146.369 288.534 146.847 288.386C147.324 288.235 147.826 288.159 148.352 288.159C148.701 288.159 149.07 288.201 149.46 288.284C149.854 288.364 150.222 288.511 150.562 288.727C150.907 288.943 151.189 289.252 151.409 289.653C151.629 290.051 151.739 290.568 151.739 291.205V297H150.08V295.807H150.011C149.902 296.027 149.737 296.242 149.517 296.455C149.297 296.667 149.015 296.843 148.67 296.983C148.326 297.123 147.913 297.193 147.432 297.193ZM147.801 295.83C148.271 295.83 148.672 295.737 149.006 295.551C149.343 295.366 149.598 295.123 149.773 294.824C149.951 294.521 150.04 294.197 150.04 293.852V292.727C149.979 292.788 149.862 292.845 149.688 292.898C149.517 292.947 149.322 292.991 149.102 293.028C148.883 293.062 148.669 293.095 148.46 293.125C148.252 293.152 148.078 293.174 147.938 293.193C147.608 293.235 147.307 293.305 147.034 293.403C146.765 293.502 146.549 293.644 146.386 293.83C146.227 294.011 146.148 294.254 146.148 294.557C146.148 294.977 146.303 295.295 146.614 295.511C146.924 295.723 147.32 295.83 147.801 295.83ZM159.893 300.273V295.642H159.791C159.689 295.828 159.541 296.04 159.348 296.278C159.159 296.517 158.897 296.725 158.564 296.903C158.231 297.081 157.799 297.17 157.268 297.17C156.564 297.17 155.935 296.991 155.382 296.631C154.833 296.267 154.401 295.75 154.087 295.08C153.776 294.405 153.621 293.597 153.621 292.653C153.621 291.71 153.778 290.903 154.092 290.233C154.411 289.562 154.846 289.049 155.399 288.693C155.952 288.337 156.579 288.159 157.28 288.159C157.821 288.159 158.257 288.25 158.587 288.432C158.92 288.61 159.178 288.818 159.359 289.057C159.545 289.295 159.689 289.506 159.791 289.688H159.933V288.273H161.592V300.273H159.893ZM157.643 295.722C158.132 295.722 158.545 295.593 158.882 295.335C159.223 295.074 159.481 294.712 159.655 294.25C159.833 293.788 159.922 293.25 159.922 292.636C159.922 292.03 159.835 291.5 159.661 291.045C159.486 290.591 159.231 290.237 158.893 289.983C158.556 289.729 158.14 289.602 157.643 289.602C157.132 289.602 156.706 289.735 156.365 290C156.024 290.265 155.767 290.627 155.592 291.085C155.422 291.544 155.337 292.061 155.337 292.636C155.337 293.22 155.424 293.744 155.598 294.21C155.772 294.676 156.03 295.045 156.371 295.318C156.715 295.587 157.14 295.722 157.643 295.722ZM169.405 293.381V288.273H171.109V297H169.439V295.489H169.348C169.147 295.955 168.825 296.343 168.382 296.653C167.943 296.96 167.395 297.114 166.74 297.114C166.179 297.114 165.683 296.991 165.251 296.744C164.823 296.494 164.486 296.125 164.24 295.636C163.998 295.148 163.876 294.544 163.876 293.824V288.273H165.575V293.619C165.575 294.214 165.74 294.687 166.07 295.04C166.399 295.392 166.827 295.568 167.354 295.568C167.672 295.568 167.988 295.489 168.303 295.33C168.621 295.17 168.884 294.93 169.092 294.608C169.304 294.286 169.409 293.877 169.405 293.381ZM173.392 297V288.273H175.091V297H173.392ZM174.25 286.926C173.955 286.926 173.701 286.828 173.489 286.631C173.28 286.43 173.176 286.191 173.176 285.915C173.176 285.634 173.28 285.396 173.489 285.199C173.701 284.998 173.955 284.898 174.25 284.898C174.545 284.898 174.797 284.998 175.006 285.199C175.218 285.396 175.324 285.634 175.324 285.915C175.324 286.191 175.218 286.43 175.006 286.631C174.797 286.828 174.545 286.926 174.25 286.926Z" fill="#F8F8F8"/>
</svg>
