<svg width="24" height="24" viewBox="0 0 24 24" fill="none" xmlns="http://www.w3.org/2000/svg">
<path d="M7 6.25C5.48122 6.25 4.25 7.48122 4.25 9V19C4.25 20.5188 5.48122 21.75 7 21.75H17C18.5188 21.75 19.75 20.5188 19.75 19V9C19.75 7.48122 18.5188 6.25 17 6.25H7Z" fill="#E9E9E9"/>
<path fill-rule="evenodd" clip-rule="evenodd" d="M11 3.75C9.75736 3.75 8.75 4.75736 8.75 6V10C8.75 10.4142 8.41421 10.75 8 10.75C7.58579 10.75 7.25 10.4142 7.25 10V6C7.25 3.92893 8.92893 2.25 11 2.25H13C15.0711 2.25 16.75 3.92893 16.75 6V10C16.75 10.4142 16.4142 10.75 16 10.75C15.5858 10.75 15.25 10.4142 15.25 10V6C15.25 4.75736 14.2426 3.75 13 3.75H11Z" fill="#9C9CAB"/>
</svg>
