<svg width="24" height="24" viewBox="0 0 24 24" fill="none" xmlns="http://www.w3.org/2000/svg">
<path d="M12.4961 3.13176C12.1887 2.95608 11.8113 2.95608 11.5039 3.13176L4.50386 7.13176C4.19229 7.3098 4 7.64114 4 8V17C4 17.3589 4.19229 17.6902 4.50386 17.8682L11.5039 21.8682C11.8113 22.0439 12.1887 22.0439 12.4961 21.8682L19.4961 17.8682C19.8077 17.6902 20 17.3589 20 17V8C20 7.64114 19.8077 7.3098 19.4961 7.13176L12.4961 3.13176Z" fill="#CECECE"/>
<path fill-rule="evenodd" clip-rule="evenodd" d="M7.84895 5.62789C8.05445 5.26826 8.51259 5.14331 8.87223 5.34882L15.8722 9.34882C16.1059 9.48235 16.2501 9.73086 16.2501 10V12.5C16.2501 12.9142 15.9143 13.25 15.5001 13.25C15.0859 13.25 14.7501 12.9142 14.7501 12.5V10.4352L8.12802 6.65118C7.76839 6.44567 7.64344 5.98753 7.84895 5.62789Z" fill="#9C9CAB"/>
</svg>
