<svg width="24" height="24" viewBox="0 0 24 24" fill="none" xmlns="http://www.w3.org/2000/svg">
<path d="M7 2.25C5.48122 2.25 4.25 3.48122 4.25 5V19C4.25 20.5188 5.48122 21.75 7 21.75H17C18.5188 21.75 19.75 20.5188 19.75 19V8.82843C19.75 8.09908 19.4603 7.39961 18.9445 6.88388L15.1161 3.05546C14.6004 2.53973 13.9009 2.25 13.1716 2.25H7Z" fill="#B6B6B6"/>
<path fill-rule="evenodd" clip-rule="evenodd" d="M13 3.25C13.4142 3.25 13.75 3.58579 13.75 4V7C13.75 7.69036 14.3096 8.25 15 8.25H18C18.4142 8.25 18.75 8.58579 18.75 9C18.75 9.41421 18.4142 9.75 18 9.75H15C13.4812 9.75 12.25 8.51878 12.25 7V4C12.25 3.58579 12.5858 3.25 13 3.25ZM12 12.25C12.4142 12.25 12.75 12.5858 12.75 13V14.25H14C14.4142 14.25 14.75 14.5858 14.75 15C14.75 15.4142 14.4142 15.75 14 15.75H12.75V17C12.75 17.4142 12.4142 17.75 12 17.75C11.5858 17.75 11.25 17.4142 11.25 17V15.75H10C9.58579 15.75 9.25 15.4142 9.25 15C9.25 14.5858 9.58579 14.25 10 14.25H11.25V13C11.25 12.5858 11.5858 12.25 12 12.25Z" fill="#909090"/>
</svg>
