<svg width="24" height="24" viewBox="0 0 24 24" fill="none" xmlns="http://www.w3.org/2000/svg">
<path d="M5 7.25C3.48122 7.25 2.25 8.48122 2.25 10C2.25 11.5188 3.48122 12.75 5 12.75C6.51878 12.75 7.75 11.5188 7.75 10C7.75 8.48122 6.51878 7.25 5 7.25Z" fill="#9C9CAB"/>
<path d="M5 14.25C3.80424 14.25 2.68461 14.4907 1.83616 14.915C1.03258 15.3168 0.25 16.0106 0.25 17C0.25 17.9894 1.03258 18.6832 1.83616 19.085C2.68461 19.5093 3.80424 19.75 5 19.75C5.82536 19.75 6.60818 19.6355 7.28895 19.429L8.74203 18.9884L7.509 18.1023C6.93641 17.6908 6.75 17.299 6.75 17C6.75 16.701 6.93641 16.3092 7.509 15.8977L8.74203 15.0116L7.28895 14.571C6.60818 14.3645 5.82536 14.25 5 14.25Z" fill="#9C9CAB"/>
<path d="M16.25 10C16.25 8.48122 17.4812 7.25 19 7.25C20.5188 7.25 21.75 8.48122 21.75 10C21.75 11.5188 20.5188 12.75 19 12.75C17.4812 12.75 16.25 11.5188 16.25 10Z" fill="#9C9CAB"/>
<path d="M16.7111 14.571C17.3919 14.3645 18.1747 14.25 19.0001 14.25C20.1958 14.25 21.3155 14.4907 22.1639 14.915C22.9675 15.3168 23.7501 16.0106 23.7501 17C23.7501 17.9894 22.9675 18.6832 22.1639 19.085C21.3155 19.5093 20.1958 19.75 19.0001 19.75C18.1747 19.75 17.3919 19.6355 16.7111 19.429L15.2581 18.9884L16.4911 18.1023C17.0637 17.6908 17.2501 17.299 17.2501 17C17.2501 16.701 17.0637 16.3092 16.4911 15.8977L15.2581 15.0116L16.7111 14.571Z" fill="#9C9CAB"/>
<path d="M12 3.25C9.92893 3.25 8.25 4.92893 8.25 7C8.25 9.07107 9.92893 10.75 12 10.75C14.0711 10.75 15.75 9.07107 15.75 7C15.75 4.92893 14.0711 3.25 12 3.25Z" fill="#CECECE"/>
<path d="M12 13.25C9.85863 13.25 7.88464 13.7806 6.63362 14.6796C5.85546 15.2389 5.25 16.0268 5.25 17C5.25 17.9732 5.85546 18.7611 6.63362 19.3204C7.88464 20.2194 9.85863 20.75 12 20.75C14.1414 20.75 16.1154 20.2194 17.3664 19.3204C18.1445 18.7611 18.75 17.9732 18.75 17C18.75 16.0268 18.1445 15.2389 17.3664 14.6796C16.1154 13.7806 14.1414 13.25 12 13.25Z" fill="#CECECE"/>
</svg>
