<svg width="24" height="24" viewBox="0 0 24 24" fill="none" xmlns="http://www.w3.org/2000/svg">
<path fill-rule="evenodd" clip-rule="evenodd" d="M15.25 4C15.25 3.58579 15.5858 3.25 16 3.25H20C20.4142 3.25 20.75 3.58579 20.75 4V8C20.75 8.41421 20.4142 8.75 20 8.75C19.5858 8.75 19.25 8.41421 19.25 8V5.81066L14.5303 10.5303C14.2374 10.8232 13.7626 10.8232 13.4697 10.5303C13.1768 10.2374 13.1768 9.76256 13.4697 9.46967L18.1893 4.75H16C15.5858 4.75 15.25 4.41421 15.25 4ZM8 6.75C7.30964 6.75 6.75 7.30964 6.75 8V16C6.75 16.6904 7.30964 17.25 8 17.25H16C16.6904 17.25 17.25 16.6904 17.25 16V11C17.25 10.5858 17.5858 10.25 18 10.25C18.4142 10.25 18.75 10.5858 18.75 11V16C18.75 17.5188 17.5188 18.75 16 18.75H8C6.48122 18.75 5.25 17.5188 5.25 16V8C5.25 6.48122 6.48122 5.25 8 5.25H13C13.4142 5.25 13.75 5.58579 13.75 6C13.75 6.41421 13.4142 6.75 13 6.75H8Z" fill="white"/>
</svg>
